<?xml version="1.0" standalone="no"?>
<!DOCTYPE svg PUBLIC "-//W3C//DTD SVG 20010904//EN"
 "http://www.w3.org/TR/2001/REC-SVG-20010904/DTD/svg10.dtd">
<svg version="1.0" xmlns="http://www.w3.org/2000/svg"
 width="700.000000pt" height="700.000000pt" viewBox="0 0 700.000000 700.000000"
 preserveAspectRatio="xMidYMid meet">
<metadata>
Created by potrace 1.11, written by Peter Selinger 2001-2013
</metadata>
<g transform="translate(0.000000,700.000000) scale(0.100000,-0.100000)"
fill="#000000" stroke="none">
<path d="M210 5645 c0 -11 78 -221 130 -350 5 -11 41 -105 80 -210 74 -196
105 -275 120 -310 5 -11 25 -63 44 -115 47 -128 184 -490 195 -515 5 -11 18
-45 29 -75 11 -30 37 -97 56 -147 20 -51 36 -96 36 -99 0 -3 7 -20 15 -37 7
-18 80 -205 160 -417 80 -212 157 -412 170 -445 12 -33 49 -127 80 -210 31
-82 68 -179 82 -215 53 -138 73 -191 141 -370 39 -102 74 -193 77 -202 7 -17
30 -18 294 -18 l287 0 174 456 175 456 110 28 c216 54 573 200 925 376 112 57
205 102 206 101 2 -2 -45 -126 -201 -532 -19 -49 -54 -142 -78 -205 -24 -63
-69 -180 -99 -260 -31 -80 -79 -205 -107 -278 -28 -74 -51 -135 -51 -138 0 -2
42 -4 93 -4 l92 0 -170 -86 c-210 -106 -477 -244 -490 -254 -5 -4 -55 -31
-110 -60 -139 -74 -342 -191 -495 -285 -76 -47 -478 -318 -520 -351 -74 -58
-168 -154 -199 -203 -46 -72 -59 -111 -56 -169 4 -66 39 -116 106 -150 40 -21
54 -22 164 -18 154 5 257 34 470 131 251 115 652 421 964 736 179 180 298 312
480 529 62 74 122 145 132 158 10 12 30 22 44 22 20 0 28 8 40 38 9 20 23 42
33 48 9 6 296 152 637 324 701 354 807 408 956 491 l107 60 142 -3 142 -3 85
-240 c46 -132 120 -341 164 -465 44 -124 82 -231 84 -237 3 -10 65 -13 265
-13 148 0 260 4 260 9 0 5 -99 269 -221 588 -121 318 -233 612 -249 653 -15
41 -46 122 -68 180 -43 113 -146 383 -290 760 -49 129 -151 397 -227 595 -279
731 -355 933 -355 944 0 13 10 12 -325 13 l-259 0 -58 -154 c-32 -84 -76 -198
-97 -253 -22 -55 -118 -309 -216 -565 -97 -256 -180 -474 -184 -485 -25 -60
-37 -91 -92 -239 -33 -88 -69 -180 -80 -203 -10 -24 -19 -46 -19 -50 0 -17
-82 -219 -93 -230 -43 -43 -661 -346 -897 -440 -69 -27 -231 -77 -288 -88 -13
-2 -32 -7 -43 -10 -25 -8 -24 -1 10 86 16 41 84 218 150 394 67 176 126 329
130 340 5 11 51 130 102 265 50 135 97 255 103 266 17 32 343 298 593 483 52
39 73 60 73 76 0 31 -34 59 -63 51 -28 -7 -458 -325 -488 -362 -30 -36 -30
-10 0 61 9 22 8 20 151 395 55 146 118 310 139 365 95 247 111 289 107 292 -5
5 -516 7 -520 2 -4 -4 -71 -181 -186 -489 -38 -102 -85 -225 -103 -275 -19
-49 -121 -319 -227 -600 -105 -280 -200 -528 -209 -550 -10 -22 -50 -82 -88
-133 -183 -242 -278 -506 -230 -637 14 -40 14 -41 -62 -242 -42 -111 -78 -204
-82 -207 -3 -3 -131 329 -284 737 -153 408 -300 798 -326 867 -371 987 -526
1398 -550 1460 l-29 75 -260 0 c-167 0 -260 -4 -260 -10z m4800 -595 c4 -14
54 -146 109 -295 56 -148 99 -277 96 -286 -5 -16 -113 -118 -195 -185 -19 -16
-37 -31 -40 -34 -28 -32 -463 -361 -469 -355 -2 2 4 20 13 39 9 19 16 37 16
41 0 3 57 160 126 348 69 188 164 446 210 572 47 127 87 237 90 245 5 14 15
-7 44 -90z m380 -1025 c45 -121 108 -294 142 -385 33 -91 64 -174 69 -185 11
-27 59 -156 59 -161 0 -2 -216 -4 -479 -4 l-480 0 76 123 c41 67 120 199 174
292 55 94 104 177 109 185 5 8 57 104 117 212 105 190 108 196 120 170 7 -15
49 -126 93 -247z m-316 138 c-3 -16 -7 -37 -11 -48 -11 -37 -401 -705 -465
-797 l-19 -28 -145 0 c-79 0 -144 3 -144 8 0 8 123 344 148 405 10 23 31 47
52 60 53 32 392 280 489 358 47 38 89 69 93 69 4 0 5 -12 2 -27z m-2881 -933
c-3 -12 -8 -19 -11 -16 -5 6 5 36 12 36 2 0 2 -9 -1 -20z m2050 -457 c-171
-252 -274 -395 -279 -390 -2 2 34 111 81 242 47 131 85 240 85 242 0 2 41 3
90 3 l90 0 -67 -97z m1075 91 c-12 -12 -246 -132 -543 -278 -312 -154 -354
-174 -565 -271 -63 -29 -141 -65 -173 -79 -33 -15 -60 -26 -62 -24 -2 2 67
103 153 225 86 121 190 269 230 327 l74 106 446 0 c245 0 443 -3 440 -6z
m-1859 -1111 c-484 -584 -883 -940 -1333 -1187 -105 -58 -292 -124 -396 -141
-19 -3 -48 -8 -63 -11 -55 -11 -115 5 -137 36 -48 67 -29 122 79 230 165 166
399 329 796 557 278 159 321 183 505 282 47 25 112 60 145 78 33 19 107 58
165 88 58 30 148 76 200 104 52 27 99 50 103 51 4 0 -25 -39 -64 -87z"/>
</g>
</svg>
