<?xml version="1.0" encoding="utf-8"?>
<!-- Generator: Adobe Illustrator 22.1.0, SVG Export Plug-In . SVG Version: 6.00 Build 0)  -->
<svg version="1.1" xmlns="http://www.w3.org/2000/svg" xmlns:xlink="http://www.w3.org/1999/xlink" x="0px" y="0px"
	 viewBox="0 0 100 39.1" style="enable-background:new 0 0 100 39.1;" xml:space="preserve">
<style type="text/css">
	.st0{display:none;}
	.st1{display:inline;fill:#FED136;}
	.st2{fill:#F7F7F7;}
</style>
<g id="Layer_1" class="st0">
	<path class="st1" d="M-41.2,2.3c0.1,0.4,0.1,0.7,0.2,0.8c0,0.2,0.1,0.4,0.1,0.6c0,0.8-0.2,1.5-0.5,2.2C-41.8,6.5-42.3,7-43,7.3
		c-0.5-0.6-1.1-1.2-1.7-1.6c-0.7-0.5-1.5-0.8-2.2-1.1c-0.8-0.3-1.7-0.5-2.5-0.6c-0.8-0.1-1.7-0.2-2.5-0.2c-0.8,0-1.6,0.1-2.3,0.2
		C-55,4-55.6,4.2-56.2,4.4c-0.5,0.2-0.9,0.5-1.3,0.8C-57.9,5.5-58,6-58,6.4c0.1,0.6,0.5,1.2,1,1.6c0.6,0.6,1.3,1.1,2.1,1.6
		c0.8,0.5,1.7,1,2.7,1.5s2,1,3,1.4C-48,13-47,13.5-46.1,14c0.8,0.4,1.5,1,2.2,1.6c0.6,0.6,1,1.3,1.3,2c0.3,0.8,0.4,1.7,0.3,2.6
		c0,1.2-0.2,2.3-0.6,3.4c-0.4,1-1,2-1.8,2.7c-0.8,0.8-1.7,1.4-2.8,1.8c-1.2,0.4-2.4,0.7-3.6,0.7c-1.4,0-2.8-0.2-4.2-0.6
		c-1.5-0.4-2.9-0.9-4.3-1.7c-1.2-0.6-2.4-1.4-3.3-2.4c-0.8-0.7-1.3-1.8-1.4-2.9c0-0.6,0.2-1.2,0.4-1.8c0.3-0.9,0.8-1.6,1.5-2.3
		c0.2,0.9,0.5,1.8,1.1,2.5c0.8,1.1,1.9,2,3.1,2.7c1.3,0.7,2.6,1.3,4,1.7c1.3,0.3,2.6,0.5,3.9,0.5c1.1,0,2.2-0.1,3.2-0.5
		c0.7-0.3,1.4-0.7,1.9-1.2c0.4-0.4,0.8-0.9,1-1.4c0.2-0.4,0.3-0.7,0.3-1.1c0-0.5-0.3-1-0.6-1.4c-0.5-0.5-1.1-0.9-1.7-1.3
		c-0.7-0.4-1.5-0.8-2.4-1.3s-1.9-0.9-2.9-1.3c-1.5-0.7-2.8-1.3-3.8-1.9c-0.9-0.5-1.8-1.1-2.7-1.8c-0.6-0.5-1.2-1.2-1.5-1.9
		c-0.3-0.7-0.5-1.5-0.5-2.3c0-1.3,0.4-2.7,1.2-3.8c0.9-1.2,2.1-2.2,3.5-2.7c0.8-0.3,1.6-0.6,2.4-0.7C-52,0.1-51.1,0-50.3,0
		c1.5,0,3.1,0.2,4.6,0.6C-44.2,1.1-42.7,1.6-41.2,2.3z"/>
	<path class="st1" d="M-38.4,12.6c-0.2-0.3-0.3-0.6-0.3-0.9c-0.1-0.4-0.1-0.8-0.1-1.2c0.6,0.1,1.2,0.1,1.8,0.1h1.6
		c0.4-0.7,0.7-1.4,1.2-2.1s0.8-1.3,1.2-1.9c0.3-0.5,0.7-1,1.1-1.5c0.2-0.3,0.5-0.5,0.8-0.8c0.3,0,0.6,0,0.9,0.1
		c0.4,0.1,0.7,0.2,1.1,0.3s0.7,0.3,1,0.4c0.2,0.1,0.5,0.2,0.6,0.4c-0.7,0.9-1.3,1.7-1.8,2.5s-1.1,1.6-1.7,2.6h1.4c0.5,0,1,0,1.5-0.1
		c0.1,0.1,0.2,0.3,0.3,0.4c0.1,0.2,0.1,0.4,0.1,0.5c-1.4,0.5-2.8,0.7-4.2,0.7c-0.6,1.1-1.1,2.3-1.6,3.4s-0.9,2.2-1.2,3.2
		c-0.3,1-0.5,1.9-0.7,2.9c-0.2,0.8-0.3,1.7-0.3,2.5c0,1,0.4,1.6,1.2,1.7c0.7-0.1,1.4-0.3,2-0.5c0.6-0.2,1.2-0.6,1.7-1
		c0.1,0.2,0.2,0.3,0.2,0.5c-0.2,0.3-0.4,0.5-0.7,0.7c-0.4,0.3-0.7,0.6-1.1,0.8c-0.4,0.3-0.8,0.5-1.2,0.7c-0.3,0.1-0.6,0.3-0.9,0.3
		c-0.6,0-1.2-0.1-1.8-0.3c-0.6-0.2-1.1-0.5-1.6-0.9c-0.5-0.3-0.9-0.7-1.2-1.2c-0.3-0.4-0.4-0.8-0.5-1.3c0-0.7,0.1-1.4,0.2-2.1
		c0.2-0.9,0.4-1.8,0.7-2.8s0.6-2.1,1-3.2s0.8-2.2,1.2-3.3L-38.4,12.6z"/>
	<path class="st1" d="M-15.8,11.8c0.3,0,0.6,0,0.8,0.1c0.3,0.1,0.6,0.2,0.9,0.3c0.2,0.1,0.4,0.2,0.7,0.4c0.2,0.1,0.3,0.3,0.3,0.4
		c-0.5,1-0.9,2-1.3,3s-0.7,2-1,2.9c-0.3,0.8-0.5,1.7-0.7,2.6c-0.1,0.7-0.2,1.4-0.2,2.1c0,0.6,0.1,1.1,0.2,1.6
		c0.1,0.4,0.4,0.7,0.7,0.9c-0.3,0.2-0.7,0.4-1.1,0.5c-0.4,0.1-0.8,0.2-1.2,0.2c-1.3,0-1.9-0.9-1.9-2.6c0.1-1.9,0.6-3.8,1.4-5.5
		c-0.5,1-1,2-1.6,3c-0.6,0.9-1.2,1.7-1.9,2.5c-0.6,0.7-1.2,1.3-2,1.9c-0.5,0.4-1.1,0.7-1.8,0.8c-0.9,0-1.7-0.5-2.1-1.2
		c-0.6-0.9-0.9-1.9-0.8-3c0-1.4,0.3-2.9,0.8-4.2c0.6-1.4,1.3-2.8,2.2-4.1c0.8-1.2,1.8-2.2,2.9-3.1c0.8-0.8,1.9-1.2,3-1.3
		c0.3,0.1,0.6,0.2,0.8,0.4c0.3,0.2,0.6,0.5,0.8,0.7c0.3,0.3,0.5,0.6,0.7,0.9c0.2,0.2,0.3,0.5,0.3,0.8c-1.1,0.2-2.1,0.6-2.9,1.3
		c-1,0.8-2,1.8-2.7,2.8c-0.8,1.1-1.5,2.3-2,3.5c-0.5,1.1-0.8,2.3-0.8,3.5c0,0.4,0.2,0.7,0.5,0.8c0.9-0.3,1.8-0.9,2.4-1.8
		c1.2-1.5,2.3-3.1,3.3-4.8l0.8-1.4c0.3-0.5,0.6-1.1,0.9-1.6l0.9-1.7C-16.3,12.9-16.1,12.4-15.8,11.8z"/>
	<path class="st1" d="M-12.2,25.4c0.1-0.7,0.3-1.6,0.6-2.7s0.6-2.3,1-3.6s0.8-2.5,1.3-3.8s0.9-2.4,1.3-3.4c0.2-0.6,0.5-1.2,0.8-1.7
		c0.2-0.4,0.5-0.7,0.8-1c0.3,0.1,0.7,0.1,1,0.2c0.3,0.1,0.7,0.3,1,0.4c0.3,0.2,0.6,0.3,0.9,0.5c0.2,0.1,0.4,0.3,0.6,0.5
		c-0.7,0.8-1.2,1.7-1.7,2.6c-0.5,1.2-1,2.4-1.4,3.6c1.3-1.1,2.4-2.2,3.4-3.3c1-1.1,1.9-2.2,2.7-3.5c0.2-0.1,0.5-0.2,0.7-0.2
		c0.3,0,0.7,0,1,0.2c0.3,0.1,0.5,0.2,0.6,0.4c-0.4,1.1-0.6,2.2-0.6,3.4c-0.1,0.8,0.1,1.6,0.5,2.3c-0.1,0.3-0.3,0.6-0.5,0.8
		c-0.3,0.4-0.6,0.8-1,1.1c-0.7-0.3-1.2-0.8-1.7-1.3c-0.5-0.6-0.9-1.2-1.1-1.9c-1,0.7-1.9,1.5-2.8,2.3c-0.8,0.7-1.4,1.6-2,2.5
		c-0.6,1-1.1,2-1.4,3.1c-0.4,1.2-0.8,2.6-1.1,4.2c-0.3,0-0.5-0.1-0.8-0.2c-0.3-0.1-0.6-0.3-0.9-0.5c-0.3-0.2-0.5-0.4-0.8-0.6
		C-12,25.9-12.1,25.6-12.2,25.4z"/>
	<path class="st1" d="M4.9,12.6c-0.2-0.3-0.3-0.6-0.3-0.9c-0.1-0.4-0.1-0.8-0.1-1.2c0.6,0.1,1.2,0.1,1.8,0.1h1.6
		C8.2,9.9,8.6,9.2,9,8.5s0.8-1.3,1.2-1.9c0.3-0.5,0.7-1,1.1-1.5c0.2-0.3,0.5-0.6,0.8-0.8c0.3,0,0.6,0,0.9,0.1
		c0.4,0.1,0.7,0.2,1.1,0.3s0.7,0.3,1,0.4c0.2,0.1,0.5,0.2,0.6,0.4c-0.7,0.9-1.3,1.7-1.8,2.5s-1.1,1.6-1.7,2.6h1.4c0.5,0,1,0,1.5-0.1
		c0.1,0.1,0.2,0.3,0.3,0.4c0.1,0.2,0.1,0.4,0.1,0.5c-1.4,0.5-2.8,0.7-4.2,0.7c-0.6,1.1-1.1,2.3-1.6,3.4S8.9,18,8.7,19
		c-0.3,1-0.6,1.9-0.8,2.9c-0.2,0.8-0.2,1.7-0.3,2.5c0,1,0.4,1.6,1.2,1.7c0.7-0.1,1.4-0.3,2-0.5c0.6-0.2,1.2-0.6,1.7-1
		c0.1,0.2,0.2,0.3,0.2,0.5c-0.2,0.3-0.5,0.5-0.7,0.7c-0.4,0.3-0.7,0.6-1.1,0.8c-0.4,0.3-0.8,0.5-1.2,0.7c-0.3,0.1-0.6,0.2-0.8,0.3
		c-0.6,0-1.2-0.1-1.8-0.3c-0.6-0.2-1.1-0.5-1.6-0.9c-0.5-0.3-0.9-0.7-1.2-1.2c-0.3-0.4-0.5-0.8-0.5-1.3c0-0.7,0.1-1.4,0.2-2.1
		c0.2-0.9,0.4-1.8,0.7-2.8s0.6-2.1,1-3.2s0.8-2.2,1.2-3.3L4.9,12.6z"/>
	<path class="st1" d="M48.3,6.6c0,1.4-0.4,2.8-1.2,3.9c-0.9,1.2-2,2.2-3.3,2.9c0.9,0.6,1.6,1.3,2.1,2.2c0.5,0.9,0.8,1.9,0.8,2.9
		c0,1.3-0.4,2.6-1.2,3.8c-0.8,1.3-1.9,2.4-3.1,3.3c-1.3,1-2.8,1.8-4.3,2.3c-1.6,0.6-3.3,0.9-5,0.9c-1.7,0-3.3-0.3-4.8-1
		c-1.3-0.7-2.5-1.7-3.2-3c0.2-0.7,0.5-1.6,0.9-2.6c0.4-1,0.8-2.2,1.3-3.3s1-2.3,1.4-3.5s0.9-2.2,1.4-3.1c0.9-2,1.7-3.7,2.4-5
		c0.6-1.1,1.3-2.2,2-3.1c-1.2,0.4-2.4,0.8-3.5,1.4c-0.8,0.4-1.6,0.9-2.3,1.5c-0.2-0.2-0.5-0.4-0.7-0.6c-0.2-0.3-0.4-0.6-0.6-0.9
		c-0.2-0.3-0.4-0.7-0.5-1c-0.1-0.3-0.2-0.6-0.2-1c0.7-0.5,1.6-0.9,2.4-1.2c1-0.4,2.1-0.7,3.2-1c1.2-0.3,2.4-0.5,3.6-0.7
		c1.2-0.2,2.3-0.2,3.5-0.2c2.3-0.1,4.7,0.5,6.7,1.7C47.5,3,48.4,4.8,48.3,6.6z M34.8,15.1c-0.5-0.2-0.9-0.6-1.2-1
		c-0.6,1.2-1.1,2.4-1.5,3.5s-0.9,2.2-1.3,3.2s-0.7,1.9-0.9,2.6c-0.2,0.5-0.3,1.1-0.4,1.6c0.4,0.2,0.8,0.3,1.2,0.4
		c0.6,0.1,1.1,0.2,1.7,0.2c1.6,0,3.1-0.2,4.6-0.7c1.4-0.4,2.7-1.1,3.9-1.9c1-0.7,1.9-1.6,2.7-2.6c0.6-0.9,1-2,1-3.1
		c0.1-1.4-0.7-2.8-2-3.4c-2,0.8-4.1,1.2-6.2,1.1h-0.8C35.2,15.1,35,15.1,34.8,15.1z M41.7,2.8c-0.5,0-1,0-1.6,0.1
		C39.5,3,39,3,38.3,3.2c0.1,0.1,0.2,0.2,0.2,0.3c0,0.1,0.1,0.2,0.2,0.3C38.5,4.2,38.2,4.6,38,5c-0.3,0.5-0.7,1.2-1,1.9
		s-0.8,1.5-1.2,2.4s-0.8,1.8-1.2,2.7c0.5-0.1,1-0.2,1.5-0.2c0.6-0.1,1.1-0.1,1.7-0.1c0.3,0,0.6,0,0.9,0s0.6,0.1,0.9,0.1
		c1-0.2,2.1-0.4,3.1-0.8c0.8-0.3,1.6-0.8,2.3-1.3c0.6-0.4,1.1-1,1.5-1.6c0.3-0.6,0.5-1.2,0.5-1.9c0.1-1-0.5-2-1.3-2.6
		C44.4,3,43,2.7,41.7,2.8z"/>
	<path class="st1" d="M53.2,27.4c-1.3-0.1-2.4-0.7-3.2-1.8c-0.8-1.2-1.3-2.6-1.2-4c0-1,0.1-2,0.4-2.9c0.3-1,0.7-2,1.2-3
		c0.5-1,1.1-1.9,1.8-2.7c0.7-0.8,1.4-1.6,2.3-2.2c1-0.9,2.3-1.4,3.7-1.5c1,0.6,1.7,1.5,2.2,2.5h0.3h0.3c1.3,0,1.9,1.1,1.9,3.3
		c0,1.4-0.2,2.9-0.7,4.2c-0.5,1.3-1.1,2.5-2,3.6c-0.9,1.1-1.9,2-3.1,2.8C55.9,26.5,54.6,27.1,53.2,27.4z M55,16.2
		c-0.4,0.6-0.8,1.2-1.1,1.8c-0.3,0.6-0.7,1.3-0.9,1.9c-0.2,0.6-0.4,1.2-0.6,1.9c-0.1,0.5-0.2,1.1-0.2,1.6c0,0.6,0.1,1.1,0.3,1.6
		c0.2,0.5,0.4,0.8,0.6,0.9c1.1-0.2,2.1-0.7,2.9-1.3c0.9-0.7,1.7-1.5,2.3-2.4c0.7-1,1.2-2.1,1.5-3.3c0.4-1.3,0.6-2.6,0.6-3.9
		c0-0.5,0-1-0.1-1.5c-0.1-0.3-0.2-0.6-0.3-0.9c-1,0.3-2,0.8-2.8,1.5C56.3,14.7,55.6,15.4,55,16.2z"/>
	<path class="st1" d="M68.8,27.4c-1.3-0.1-2.4-0.7-3.2-1.8c-0.9-1.2-1.3-2.6-1.2-4c0-1,0.1-2,0.4-2.9c0.3-1,0.7-2,1.2-3
		c0.5-1,1.1-1.9,1.8-2.7c0.7-0.8,1.4-1.6,2.3-2.2c1-0.9,2.3-1.4,3.6-1.5c1,0.6,1.7,1.5,2.2,2.5h0.3h0.3c1.2,0,1.9,1.1,1.9,3.3
		c0,1.4-0.2,2.9-0.7,4.2c-0.5,1.3-1.1,2.5-2,3.6c-0.9,1.1-1.9,2-3.1,2.8C71.5,26.5,70.2,27.1,68.8,27.4z M70.7,16.2
		c-0.4,0.6-0.8,1.2-1.1,1.8c-0.3,0.6-0.7,1.3-0.9,1.9c-0.2,0.6-0.4,1.2-0.6,1.9c-0.1,0.5-0.2,1.1-0.2,1.6c0,0.6,0.1,1.1,0.3,1.6
		c0.2,0.5,0.4,0.8,0.6,0.9c1.1-0.2,2-0.7,2.9-1.3c0.9-0.7,1.7-1.5,2.3-2.4c0.7-1,1.2-2.1,1.5-3.3c0.4-1.3,0.6-2.6,0.6-3.9
		c0-0.5,0-1-0.1-1.5c-0.1-0.3-0.2-0.6-0.4-0.9c-1,0.3-2,0.8-2.8,1.5C72,14.7,71.3,15.4,70.7,16.2z"/>
	<path class="st1" d="M82,12.6c-0.2-0.3-0.3-0.6-0.3-0.9c-0.1-0.4-0.1-0.8-0.1-1.2c0.6,0.1,1.2,0.1,1.8,0.1h1.6
		c0.4-0.7,0.7-1.4,1.1-2.1s0.8-1.3,1.2-1.9c0.3-0.5,0.7-1,1.1-1.5c0.2-0.3,0.5-0.6,0.8-0.8c0.3,0,0.6,0,0.9,0.1
		c0.4,0.1,0.7,0.2,1.1,0.3s0.7,0.3,1,0.4c0.2,0.1,0.5,0.2,0.6,0.4c-0.7,0.9-1.3,1.7-1.8,2.5s-1.1,1.6-1.6,2.6h1.4c0.5,0,1,0,1.5-0.1
		c0.1,0.1,0.2,0.3,0.3,0.4c0.1,0.2,0.1,0.4,0.1,0.5c-1.4,0.5-2.8,0.7-4.2,0.7c-0.6,1.1-1.1,2.3-1.6,3.4S85.9,18,85.6,19
		c-0.3,1-0.5,1.9-0.7,2.9c-0.2,0.8-0.3,1.7-0.3,2.5c0,1,0.4,1.6,1.2,1.7c0.7-0.1,1.4-0.3,2-0.5c0.6-0.2,1.2-0.6,1.7-1
		c0.1,0.2,0.2,0.3,0.2,0.5c-0.2,0.3-0.5,0.5-0.7,0.7c-0.4,0.3-0.7,0.6-1.1,0.8c-0.4,0.3-0.8,0.5-1.2,0.7c-0.3,0.1-0.6,0.2-0.9,0.3
		c-0.6,0-1.2-0.1-1.8-0.3c-0.6-0.2-1.1-0.5-1.6-0.9c-0.5-0.3-0.9-0.7-1.2-1.2c-0.3-0.4-0.4-0.8-0.5-1.3c0-0.7,0.1-1.4,0.2-2.1
		c0.1-0.9,0.4-1.8,0.6-2.8s0.6-2.1,1-3.2s0.8-2.2,1.2-3.3L82,12.6z"/>
	<path class="st1" d="M104.6,12c0,0.5-0.1,0.9-0.2,1.4c-0.1,0.4-0.3,0.9-0.5,1.3c-0.2,0.4-0.4,0.7-0.6,1c-0.1,0.2-0.4,0.4-0.6,0.4
		c-0.3,0-0.4-0.2-0.5-0.5c0-0.1,0-0.2,0.1-0.3c0.1-0.1,0.1-0.3,0.2-0.5s0.1-0.4,0.2-0.6c0.1-0.2,0.1-0.3,0.1-0.5
		c0-0.3-0.1-0.6-0.2-0.8c-0.1-0.2-0.4-0.3-0.6-0.3c-0.9,0-1.7,0.6-2.2,1.8c-0.6,1.7-0.8,3.4-0.7,5.2c0,0.1,0,0.3,0,0.4h2.5
		c0,0.1,0,0.2,0,0.3c0,0.2,0,0.3-0.1,0.5l-1.3,0.3c-0.2,0.1-0.5,0.1-0.7,0.2c-0.1,0-0.2,0.1-0.3,0.2c0,0.1-0.1,0.2-0.1,0.3
		c0,0.2,0,0.4,0,0.6s0,0.4,0,0.7c0.1,1.7-0.5,3.4-1.6,4.8c-1.2,1.2-2.8,2-4.5,2.1c-0.3,0-0.7-0.1-1-0.3c-0.4-0.2-0.7-0.4-1-0.6
		c-0.3-0.3-0.6-0.5-0.8-0.9c-0.2-0.3-0.4-0.6-0.5-1c0-0.9,0.2-1.8,0.6-2.6c0.4-0.8,0.9-1.5,1.5-2.2c0.7-0.6,1.4-1.2,2.3-1.5
		c0.9-0.4,1.9-0.6,2.9-0.6c0-0.6-0.1-1.2-0.2-1.7c-0.1-0.6-0.2-1.1-0.4-1.6s-0.3-1.1-0.4-1.6c-0.1-0.5-0.2-1-0.2-1.5
		c0-0.7,0.1-1.3,0.4-1.9c0.2-0.6,0.6-1.2,1-1.7c0.4-0.5,0.9-1,1.5-1.4c0.5-0.4,1.1-0.6,1.8-0.8c0.4,0.1,0.7,0.4,1,0.6
		c0.5,0.4,0.9,0.7,1.3,1.1c0.4,0.4,0.8,0.8,1.1,1.3C104.1,11.2,104.4,11.6,104.6,12z M92.9,28.1c0.6-0.2,1.1-0.6,1.6-1
		c1-0.9,1.8-2,2.2-3.3c0.2-0.6,0.3-1.2,0.3-1.9c-0.6,0.1-1.1,0.3-1.6,0.7c-1.1,0.7-2.1,1.7-2.8,2.9c-0.3,0.4-0.5,0.9-0.5,1.4
		C92.2,27.4,92.5,27.8,92.9,28.1z"/>
	<path class="st1" d="M106.7,12.6c-0.2-0.3-0.3-0.6-0.3-0.9c-0.1-0.4-0.1-0.8-0.1-1.2c0.6,0.1,1.2,0.1,1.8,0.1h1.6
		c0.4-0.7,0.7-1.4,1.1-2.1s0.8-1.3,1.2-1.9c0.3-0.5,0.7-1,1.1-1.5c0.2-0.3,0.5-0.6,0.8-0.8c0.3,0,0.6,0,0.9,0.1
		c0.4,0.1,0.7,0.2,1.1,0.3s0.7,0.3,1,0.4c0.2,0.1,0.5,0.2,0.6,0.4c-0.7,0.9-1.3,1.7-1.8,2.5s-1.1,1.6-1.6,2.6h1.4c0.5,0,1,0,1.5-0.1
		c0.1,0.1,0.2,0.3,0.3,0.4c0.1,0.2,0.1,0.4,0.1,0.5c-1.4,0.5-2.8,0.7-4.2,0.7c-0.6,1.1-1.1,2.3-1.6,3.4s-0.9,2.2-1.2,3.2
		c-0.3,1-0.5,1.9-0.7,2.9c-0.2,0.8-0.3,1.7-0.3,2.5c0,1,0.4,1.6,1.2,1.7c0.7-0.1,1.4-0.3,2-0.5c0.6-0.2,1.2-0.6,1.7-1
		c0.1,0.2,0.2,0.3,0.2,0.5c-0.2,0.3-0.5,0.5-0.7,0.7c-0.4,0.3-0.7,0.6-1.1,0.8c-0.4,0.3-0.8,0.5-1.2,0.7c-0.3,0.1-0.6,0.2-0.9,0.3
		c-0.6,0-1.2-0.1-1.8-0.3c-0.6-0.2-1.1-0.5-1.6-0.9c-0.5-0.3-0.9-0.7-1.2-1.2c-0.3-0.4-0.4-0.8-0.5-1.3c0-0.7,0.1-1.4,0.2-2.1
		c0.1-0.9,0.4-1.8,0.6-2.8s0.6-2.1,1-3.2s0.8-2.2,1.2-3.3L106.7,12.6z"/>
	<path class="st1" d="M116.2,25.4c0.1-0.7,0.3-1.6,0.6-2.7s0.6-2.3,1-3.6s0.8-2.5,1.3-3.8s0.9-2.4,1.3-3.4c0.2-0.6,0.5-1.2,0.8-1.7
		c0.2-0.4,0.5-0.7,0.8-1c0.3,0.1,0.7,0.1,1,0.2c0.3,0.1,0.7,0.3,1,0.4c0.3,0.2,0.6,0.3,0.9,0.5c0.2,0.1,0.4,0.3,0.6,0.5
		c-0.7,0.8-1.2,1.7-1.7,2.6c-0.5,1.2-1,2.4-1.4,3.6c1.3-1.1,2.4-2.2,3.4-3.3c1-1.1,1.9-2.2,2.8-3.5c0.2-0.1,0.5-0.2,0.7-0.2
		c0.3,0,0.6,0.1,0.9,0.2c0.3,0.1,0.5,0.2,0.6,0.4c-0.4,1.1-0.6,2.2-0.6,3.4c0,0.8,0.1,1.6,0.5,2.3c-0.1,0.3-0.3,0.6-0.5,0.8
		c-0.3,0.4-0.6,0.8-1,1.1c-1.3-0.7-2.3-1.9-2.8-3.2c-1,0.7-1.9,1.5-2.8,2.3c-0.8,0.7-1.4,1.6-2,2.5c-0.6,1-1.1,2-1.4,3.1
		c-0.4,1.2-0.8,2.6-1.1,4.2c-0.3,0-0.5-0.1-0.8-0.2c-0.6-0.3-1.2-0.6-1.7-1.1C116.5,25.9,116.3,25.7,116.2,25.4z"/>
	<path class="st1" d="M143.6,11.8c0.3,0,0.6,0,0.8,0.1c0.3,0.1,0.6,0.2,0.9,0.3c0.2,0.1,0.4,0.2,0.6,0.4c0.2,0.1,0.3,0.3,0.3,0.4
		c-0.5,1-0.9,2-1.3,3s-0.7,2-1,2.9c-0.3,0.8-0.5,1.7-0.6,2.6c-0.1,0.7-0.2,1.4-0.2,2.1c0,0.6,0.1,1.1,0.2,1.6
		c0.1,0.4,0.4,0.7,0.7,0.9c-0.3,0.2-0.7,0.4-1.1,0.5c-0.4,0.1-0.8,0.2-1.2,0.2c-1.3,0-1.9-0.9-1.9-2.6c0.1-1.9,0.6-3.8,1.3-5.5
		c-0.5,1-1,2-1.6,3c-0.6,0.9-1.2,1.7-1.9,2.5c-0.6,0.7-1.2,1.3-2,1.9c-0.5,0.4-1.1,0.7-1.8,0.8c-0.9,0-1.7-0.5-2.1-1.2
		c-0.6-0.9-0.9-1.9-0.8-3c0-1.4,0.3-2.9,0.9-4.2c0.6-1.4,1.3-2.8,2.2-4.1c0.8-1.2,1.8-2.2,2.9-3.1c0.8-0.8,1.9-1.2,3-1.3
		c0.3,0.1,0.6,0.2,0.8,0.4c0.3,0.2,0.6,0.5,0.9,0.7c0.3,0.3,0.5,0.6,0.7,0.9c0.2,0.2,0.3,0.5,0.3,0.8c-1.1,0.2-2.1,0.6-2.9,1.3
		c-1,0.8-2,1.8-2.7,2.8c-0.8,1.1-1.5,2.3-2,3.5c-0.5,1.1-0.8,2.3-0.8,3.5c0,0.4,0.2,0.7,0.5,0.8c0.9-0.3,1.8-0.9,2.4-1.8
		c1.2-1.5,2.3-3.1,3.3-4.8l0.8-1.4c0.3-0.5,0.6-1.1,0.9-1.6l0.9-1.7C143,12.9,143.3,12.4,143.6,11.8z"/>
	<path class="st1" d="M145.4,37.8c-0.3-0.1-0.5-0.4-0.6-1.1c-0.1-0.4-0.2-0.7-0.2-1.1c0-0.4-0.1-0.9-0.1-1.5c0-0.7,0.1-1.3,0.2-2
		c0.2-0.9,0.4-1.8,0.7-2.9s0.6-2.3,1.1-3.5s0.9-2.5,1.4-3.8c0.6-1.6,1.2-3,1.7-4.2s0.9-2.2,1.2-3.1s0.6-1.6,0.8-2.2s0.4-1,0.5-1.5
		c0.1-0.3,0.3-0.7,0.4-1c0.2-0.4,0.4-0.8,0.7-1.2c0.2-0.4,0.5-0.8,0.8-1.2c0.2-0.3,0.4-0.6,0.7-0.8c0.8,0.1,1.6,0.3,2.3,0.6
		c0.5,0.2,1,0.5,1.4,0.9c-0.4,0.4-0.8,0.9-1.1,1.4c-0.5,0.7-0.9,1.4-1.2,2.1c-0.4,0.8-0.8,1.6-1.1,2.4c-0.3,0.7-0.5,1.4-0.7,2.1
		c0.3-0.5,0.6-0.9,0.9-1.3c0.4-0.5,1-1.1,1.7-2c0.7-0.8,1.6-1.5,2.5-2.1c0.6-0.4,1.3-0.7,2-0.7c0.8,0,1.6,0.2,2.2,0.7
		c0.6,0.5,0.9,1.2,0.9,1.9c0,1.7-0.3,3.4-0.9,5.1c-0.5,1.6-1.4,3.2-2.4,4.5c-0.4,0.5-0.9,1-1.4,1.4c-0.5,0.5-1.1,0.9-1.7,1.2
		c-0.5,0.3-1.1,0.6-1.7,0.9c-0.5,0.2-1,0.3-1.5,0.3c-0.4,0-0.8-0.1-1.1-0.3c-0.3-0.1-0.5-0.4-0.6-0.7c1-0.6,1.9-1.4,2.7-2.3
		c0.9-1,1.7-2.1,2.4-3.3c0.8-1.3,1.4-2.7,1.9-4.1c0.5-1.4,1-2.9,1.3-4.5c-0.9,0.4-1.7,1-2.4,1.5c-0.8,0.6-1.5,1.4-2.2,2.2
		c-0.9,1-1.5,1.9-2,2.5s-0.9,1.2-1.2,1.6c-0.3,0.4-0.6,0.8-0.8,1.2c-0.2,0.4-0.4,0.9-0.6,1.4c-0.3,0.8-0.7,1.8-1.1,3
		s-0.9,2.6-1.4,4.2s-0.9,3.2-1.4,4.9c-0.5,1.7-0.9,3.5-1.3,5.2c-0.3-0.1-0.5-0.3-0.7-0.6c-0.2-0.2-0.3-0.4-0.4-0.5
		C145.6,38,145.5,37.9,145.4,37.8z"/>
</g>
<g id="Layer_2">
	<g>
		<path class="st2" d="M21.8,19.8c-0.5,2-1.1,4-1.9,6c0,0,0,0,0.1,0c0.7-0.1,1.3-0.1,2-0.1c0.2,0,0.4,0,0.5,0.1c0.1,0,0.1,0,0.1,0.1
			c0,0,0.1,0,0.1,0.1c0,0,0.1,0.1,0.1,0.2c0,0.1-0.1,0.1-0.1,0.2c0,0-0.1,0-0.1,0c-0.1,0-0.1,0-0.2,0c-0.4,0-0.8-0.1-1-0.3
			c-0.5,0-1,0-1.4,0.1c-0.1,0-0.1,0-0.2,0c-0.2,0.4-0.4,0.9-0.6,1.3c-1.1,2.5-2.4,4.8-4.1,7c-0.9,1-1.8,2-2.8,2.9
			c-0.6,0.4-1.1,0.8-1.8,1.1c-0.3,0.1-0.7,0.3-1,0.3c-0.4,0.1-0.7,0.1-1.1-0.1c-0.2-0.1-0.4-0.1-0.5-0.3c-0.2-0.1-0.3-0.3-0.4-0.5
			c-0.2-0.3-0.2-0.7-0.3-1.1c0-0.7,0.1-1.4,0.3-2.1c0.4-1.3,1.1-2.5,2-3.6c0.8-1.1,1.8-2,2.9-2.8c1.1-0.8,2.3-1.4,3.6-1.9
			c0.6-0.2,1.3-0.4,2-0.5c0.4-0.1,0.9-0.2,1.3-0.2c0.8-2,1.5-4,2-6.1c0.3-1.3,0.6-2.6,0.8-3.9c0.2-1.3,0.3-2.6,0.3-4
			c0-0.6,0-1.3-0.2-1.9c-0.1-0.3-0.2-0.6-0.4-0.6c-0.2,0-0.5,0.1-0.8,0.3c-0.5,0.4-0.9,0.9-1.3,1.5c-0.4,0.6-0.7,1.1-1.1,1.7
			c-1.4,2.3-2.7,4.6-4.2,6.8c-0.7,1.1-1.5,2.2-2.3,3.3c-0.9,1-1.8,2-3,2.8c-0.6,0.4-1.2,0.7-1.9,0.9c-0.7,0.2-1.4,0.2-2.1,0.1
			c-0.4-0.1-0.7-0.2-1-0.4c-0.3-0.2-0.6-0.4-0.9-0.6c-0.5-0.5-0.9-1.2-1-1.9c-0.4-1.4-0.3-2.8-0.1-4.1c0.2-1.4,0.5-2.7,1-4
			c0.4-1.3,1-2.5,1.5-3.7c0.6-1.2,1.3-2.4,2-3.5c0.2-0.3,0.4-0.7,0.7-1c-0.1,0-0.1,0-0.2,0.1C6.8,7.6,6.4,7.7,6,7.7
			c-0.3,0-0.7,0-1.1-0.1h0c-0.1,0-0.2-0.2-0.2-0.3S5,7,5.1,7c0,0,0.1,0,0.1,0c0.3,0.2,0.6,0.3,0.9,0.3c0.3,0,0.6,0,1-0.1
			c0.2,0,0.4-0.1,0.6-0.2c1.2-1.7,2.6-3.4,4.2-4.8c0.5-0.5,1-0.9,1.6-1.3c0.3-0.2,0.6-0.4,0.9-0.6c0.1,0,0.2-0.1,0.3-0.1
			c0.1,0,0.1,0,0.2,0c0,0,0.1,0,0.2,0.1C15,0.4,15,0.5,15,0.6c0,0.1,0,0.2,0,0.3C15,0.9,15,1,15,1c0,0.1-0.1,0.2-0.1,0.3
			c-0.2,0.3-0.4,0.6-0.6,0.9s-0.4,0.5-0.7,0.8c-0.4,0.5-0.9,1-1.4,1.4c-1,0.9-2.1,1.7-3.3,2.4C8.8,6.9,8.5,7,8.3,7.1
			C7.9,7.7,7.5,8.3,7.1,8.9c-1.4,2.2-2.6,4.6-3.5,7.1c-0.4,1.2-0.8,2.5-1,3.8c-0.2,1.3-0.2,2.6,0.1,3.8c0.2,0.6,0.4,1.2,0.9,1.6
			c0.2,0.2,0.4,0.4,0.7,0.5C4.7,26,5,26.1,5.3,26.2c0.6,0.2,1.2,0.1,1.8,0c0.6-0.1,1.2-0.4,1.7-0.8c0.5-0.4,1-0.8,1.5-1.2
			c0.5-0.5,0.9-0.9,1.3-1.4c0.9-1,1.7-2.1,2.4-3.2c0.7-1.1,1.5-2.2,2.2-3.4c0.7-1.1,1.4-2.3,2.1-3.4c0.4-0.6,0.7-1.1,1.1-1.7
			c0.4-0.5,0.8-1.1,1.3-1.6c0.1-0.1,0.3-0.2,0.4-0.3C21.4,9,21.6,9,21.8,9C21.9,9,22,9,22.1,9c0.1,0.1,0.2,0.1,0.3,0.2
			c0.1,0.2,0.2,0.3,0.3,0.5c0.3,0.7,0.3,1.4,0.3,2.1c0,1.4-0.1,2.7-0.4,4C22.4,17.2,22.2,18.5,21.8,19.8z M19.2,26.2
			c-0.4,0.1-0.8,0.1-1.1,0.2c-0.6,0.1-1.3,0.3-1.9,0.5c-1.2,0.4-2.4,1-3.5,1.8c-1.1,0.8-2,1.7-2.8,2.7c-0.8,1-1.4,2.2-1.8,3.5
			c-0.2,0.6-0.3,1.3-0.3,1.9c0,0.3,0.1,0.6,0.2,0.8c0.1,0.3,0.3,0.4,0.6,0.5c0.5,0.2,1.2,0,1.7-0.3c0.6-0.3,1.1-0.7,1.6-1.1
			c1-0.8,1.9-1.8,2.7-2.8c0.8-1,1.6-2.1,2.3-3.3c0.7-1.1,1.3-2.3,1.8-3.5C18.9,26.9,19.1,26.5,19.2,26.2z M8.7,6.6
			c0,0,0.1,0,0.1-0.1C10,5.8,11,5,11.9,4.1c0.5-0.5,0.9-1,1.3-1.5c0.4-0.5,0.9-1,1.1-1.6l0,0c-0.3,0.1-0.5,0.3-0.8,0.5
			c-0.5,0.4-1,0.8-1.5,1.3C10.9,3.9,9.7,5.2,8.7,6.6z"/>
		<path class="st2" d="M32.9,23.5C32.9,23.6,32.9,23.6,32.9,23.5l0,0.1c-0.6,0.8-1.3,1.6-2,2.4c-0.4,0.4-0.8,0.7-1.2,1.1
			c-0.4,0.3-0.7,0.5-1,0.6c-0.3,0.1-0.5,0.2-0.7,0.2c-0.2,0-0.3,0-0.5-0.1c-0.1,0-0.2-0.1-0.2-0.1c-0.3-0.2-0.4-0.5-0.5-0.7
			c-0.2-0.6-0.2-1.1-0.2-1.6c0-0.7,0.1-1.3,0.3-2c-0.4,0.8-0.7,1.6-1.2,2.3c-0.1,0.2-0.3,0.5-0.4,0.7c-0.1,0.1-0.2,0.2-0.3,0.3
			c-0.1,0.1-0.1,0.1-0.2,0.1l-0.1,0c0,0-0.1,0-0.1,0c-0.1,0-0.2,0-0.3,0c-0.1,0-0.1-0.1-0.1-0.1c0,0,0,0,0,0c0,0-0.1-0.1-0.1-0.1
			c-0.1-0.2-0.1-0.3-0.2-0.5c0-0.3,0-0.6,0-0.8c0.1-0.9,0.3-1.7,0.5-2.5c0-0.2,0.1-0.4,0.1-0.6v0c0-0.1,0.1-0.1,0.1-0.2
			c0.1,0,0.1,0,0.2,0c0.1,0,0.1,0,0.2,0.1c0,0.1,0,0.1,0,0.2l-0.3,1.5c-0.1,0.5-0.2,1-0.3,1.5c0,0.3,0,0.5,0,0.7
			c0,0.1,0,0.2,0.1,0.3c0,0,0,0,0,0c0,0,0,0,0,0h0c0,0,0,0,0,0c0,0,0,0,0.1,0c0,0,0,0,0.1,0c0,0,0.1,0,0.1,0c0.1,0,0.2-0.1,0.3-0.2
			c0.2-0.2,0.3-0.4,0.5-0.6c0.3-0.4,0.6-0.9,0.8-1.3c0.2-0.5,0.4-0.9,0.6-1.4c0.2-0.5,0.4-1,0.6-1.4c0,0,0,0,0,0c0,0,0,0,0-0.1
			c0,0,0,0,0-0.1c0,0,0,0,0-0.1c0.1-0.1,0.1-0.1,0.2-0.1c0.1,0,0.1,0,0.1,0.1c0,0,0,0.1,0,0.1l-0.1,0.4c-0.1,0.3-0.1,0.5-0.2,0.7
			c0,0,0,0,0,0c-0.1,0.6-0.3,1.3-0.4,2.1s-0.1,1.7,0,2.4c0.1,0.4,0.3,0.7,0.6,0.7c0.3,0,0.6,0,1-0.2c0.3-0.1,0.6-0.3,0.7-0.4
			c0.3-0.3,0.6-0.5,0.9-0.8c0.1-0.1,0.2-0.2,0.3-0.3c0.7-0.7,1.4-1.5,2-2.4c0,0,0.1,0,0.1-0.1C32.8,23.4,32.8,23.4,32.9,23.5
			C32.9,23.5,32.9,23.5,32.9,23.5z M27.9,21.2C27.9,21.2,27.9,21.2,27.9,21.2L27.9,21.2z"/>
		<path class="st2" d="M42.1,23.5C42.1,23.5,42.1,23.5,42.1,23.5c-0.6,0.7-1.1,1.5-1.7,2.1c-0.3,0.3-0.6,0.7-1,0.9
			c-0.2,0.1-0.4,0.2-0.6,0.3c-0.3,0.1-0.6,0.1-0.8-0.1c-0.1-0.1-0.2-0.2-0.3-0.4c0-0.1-0.1-0.3-0.1-0.4c0-0.3,0-0.5,0-0.7
			c0.1-0.5,0.2-0.9,0.3-1.4c0.1-0.4,0.3-0.8,0.4-1.3c0-0.2,0.1-0.4,0.1-0.6c0-0.1,0-0.1,0-0.1c0,0-0.1-0.1-0.1-0.1
			c-0.3-0.1-0.7,0-1,0.3c-0.4,0.2-0.7,0.5-1,0.8c-0.3,0.3-0.6,0.6-0.9,1c-0.3,0.3-0.6,0.7-0.9,1s-0.6,0.7-0.9,1.1
			c-0.1,0.1-0.1,0.2-0.2,0.3c-0.1,0.1-0.2,0.2-0.3,0.3c0,0-0.1,0-0.1,0.1c0,0-0.1,0-0.2,0c0,0-0.1,0-0.1-0.1c0,0,0,0-0.1,0
			c0,0,0,0,0,0c0,0-0.1-0.1-0.1-0.1c-0.1-0.1-0.1-0.3-0.1-0.4c-0.1-0.5,0-1,0.1-1.4c0-0.2,0.1-0.5,0.1-0.7c0.1-0.2,0.1-0.5,0.3-0.7
			c0.1-0.1,0.3-0.1,0.5,0c0,0,0.1,0.1,0.1,0.1v0c0.1,0.3,0,0.4-0.1,0.7c-0.1,0.2-0.1,0.4-0.1,0.7c0,0.2-0.1,0.4-0.1,0.6
			c0,0.2,0,0.4,0,0.6c0,0,0,0.1,0,0.1c0,0,0.1-0.1,0.1-0.1c0.1-0.1,0.1-0.1,0.2-0.2c0.3-0.3,0.6-0.7,0.9-1l0.9-1.1
			c0.3-0.3,0.6-0.7,0.9-1c0.3-0.3,0.7-0.6,1.1-0.9c0.2-0.1,0.4-0.3,0.7-0.4c0.2-0.1,0.5-0.1,0.9-0.1c0.1,0,0.1,0,0.2,0.1
			c0.1,0,0.2,0.1,0.2,0.2c0.1,0.1,0.2,0.3,0.2,0.5c0,0.3,0,0.6,0,0.8c-0.1,0.5-0.2,0.9-0.4,1.4c-0.1,0.4-0.3,0.8-0.4,1.3
			c-0.1,0.2-0.1,0.4-0.1,0.6c0,0.2,0,0.4,0.1,0.4c0.1,0.1,0.3,0.2,0.4,0.2c0.2,0,0.4-0.1,0.6-0.3c0.4-0.2,0.7-0.5,1-0.8
			c0.6-0.7,1.1-1.4,1.6-2.1c0-0.1,0.1-0.1,0.2-0.1C42.1,23.4,42.1,23.5,42.1,23.5z"/>
		<path class="st2" d="M51.7,23.4C51.7,23.4,51.7,23.4,51.7,23.4c-0.5,0.6-1,1-1.6,1.3c-0.6,0.3-1.2,0.6-1.9,0.7c-0.3,0-0.7,0-1,0
			c-0.3,0-0.7-0.1-1-0.3c-0.3-0.3-0.5-0.6-0.6-1c0,0,0,0,0-0.1c0,0,0,0,0,0c-0.1,0.1-0.3,0.3-0.4,0.4c-0.4,0.3-0.9,0.6-1.3,0.7
			c-0.3,0.1-0.5,0.1-0.8,0.2c-0.3,0-0.6,0-0.9-0.1c-0.1,0-0.3-0.1-0.4-0.3c-0.1-0.1-0.2-0.3-0.3-0.5c-0.1-0.4,0-0.7,0.1-1
			c0.1-0.3,0.3-0.5,0.5-0.7c0.2-0.2,0.4-0.4,0.6-0.5c0.5-0.3,1-0.4,1.5-0.5c1.1-0.1,2,0.1,2.9,0.6c0,0,0.1,0,0.1,0.1
			c0,0,0,0.1,0,0.1c0,0,0,0.1-0.1,0.1c0,0-0.1,0-0.1,0c-0.9-0.3-1.8-0.4-2.7-0.3c-0.4,0.1-0.8,0.2-1.2,0.5c-0.4,0.2-0.7,0.5-0.8,0.9
			c-0.1,0.2-0.1,0.3-0.1,0.4c0,0.1,0.1,0.2,0.2,0.3c0.2,0.1,0.3,0.1,0.6,0.1c0.2,0,0.4,0,0.7-0.1c0.4-0.1,0.8-0.3,1.2-0.6
			c0.4-0.3,0.6-0.7,0.7-1.1c0,0,0,0,0,0c0,0,0,0,0,0l0,0c0-0.1,0.1-0.1,0.1-0.1c0.1,0,0.1,0,0.2,0c0.1,0,0.1,0.1,0.1,0.1
			c0,0.1,0,0.1,0,0.2c0,0,0,0,0,0C46,23.4,46,23.7,46,24c0,0.3,0.1,0.5,0.4,0.7c0.2,0.2,0.5,0.3,0.8,0.3c0.3,0,0.6,0,0.9,0
			c0.6-0.1,1.3-0.3,1.8-0.6c0.6-0.3,1.1-0.7,1.6-1.1c0,0,0,0,0.1,0C51.6,23.3,51.6,23.3,51.7,23.4C51.7,23.3,51.7,23.3,51.7,23.4z"
			/>
	</g>
	<g>
		<path class="st2" d="M26.2,12.1h2.4v0.1h-0.8l1.3,3.1l1.3-3.1h-0.8v-0.1h1.5v0.1h-0.5l-1.9,4.5l-1.8-4.5h-0.7V12.1z"/>
		<path class="st2" d="M31.5,16.2h0.8v-4h-0.8v-0.1h1.6v4.1h0.8v0.1h-2.4V16.2z M32.2,9.7c0-0.1,0.1-0.3,0.2-0.4
			c0.1-0.1,0.2-0.2,0.4-0.2s0.3,0.1,0.4,0.2c0.1,0.1,0.2,0.2,0.2,0.4c0,0.1-0.1,0.3-0.2,0.4c-0.1,0.1-0.2,0.2-0.4,0.2
			s-0.3-0.1-0.4-0.2C32.2,10,32.2,9.9,32.2,9.7z"/>
		<path class="st2" d="M34.5,16.2h0.8v-4h-0.8v-0.1h1.6v1h0c0-0.1,0.1-0.2,0.1-0.3c0.1-0.1,0.1-0.2,0.2-0.4c0.1-0.1,0.2-0.2,0.4-0.3
			c0.1-0.1,0.3-0.1,0.5-0.1c0.2,0,0.3,0,0.4,0.1c0.1,0.1,0.2,0.1,0.3,0.2c0.1,0.1,0.1,0.2,0.2,0.3c0,0.1,0.1,0.2,0.1,0.3
			c0,0.2-0.1,0.4-0.1,0.4c-0.1,0.1-0.2,0.1-0.4,0.1c-0.3,0-0.4-0.1-0.4-0.3c0-0.1,0-0.1,0-0.1c0,0,0-0.1,0-0.1c0,0,0-0.1,0-0.1
			c0,0,0-0.1,0-0.2c0-0.2-0.1-0.3-0.4-0.3c-0.1,0-0.2,0-0.3,0.1s-0.2,0.2-0.3,0.4c-0.1,0.2-0.2,0.3-0.3,0.6
			c-0.1,0.2-0.1,0.5-0.1,0.7v2.3H37v0.1h-2.5V16.2z"/>
		<path class="st2" d="M38.4,12.1h0.8v-1.3c0.1,0,0.1,0,0.1,0.1c0,0,0.1,0,0.2,0c0.1,0,0.2,0,0.3,0s0.1-0.1,0.2-0.1v1.4h1.4v0.1
			h-1.4v3.3c0,0.2,0,0.3,0.1,0.5s0.1,0.2,0.1,0.3c0.1,0.1,0.1,0.1,0.2,0.1c0.1,0,0.1,0,0.2,0c0.2,0,0.4-0.1,0.6-0.3
			c0.1-0.2,0.2-0.4,0.3-0.6l0.1,0c0,0.1,0,0.2-0.1,0.3c0,0.1-0.1,0.2-0.2,0.3s-0.2,0.2-0.3,0.2c-0.1,0.1-0.3,0.1-0.5,0.1
			c-0.5,0-0.8-0.1-1-0.3s-0.3-0.5-0.3-0.8v-3.2h-0.8V12.1z"/>
		<path class="st2" d="M47.3,16.3h-1.6v-1h0c-0.1,0.1-0.1,0.3-0.2,0.4c-0.1,0.1-0.2,0.3-0.3,0.4c-0.1,0.1-0.3,0.2-0.4,0.3
			c-0.2,0.1-0.4,0.1-0.6,0.1c-0.3,0-0.5,0-0.6-0.1c-0.2-0.1-0.3-0.1-0.4-0.2c0,0-0.1-0.1-0.2-0.1c-0.1,0-0.1-0.1-0.2-0.2
			c0-0.1-0.1-0.2-0.1-0.3c0-0.1-0.1-0.3-0.1-0.5v-2.8h-0.8v-0.1h1.6v3.1c0,0.2,0,0.3,0,0.5c0,0.1,0.1,0.3,0.1,0.4
			c0.1,0.1,0.2,0.2,0.3,0.3c0.1,0.1,0.2,0.1,0.4,0.1c0.1,0,0.3,0,0.5-0.1c0.2-0.1,0.3-0.2,0.4-0.4s0.2-0.4,0.3-0.6
			c0.1-0.2,0.1-0.5,0.1-0.8v-2.3h-0.8v-0.1h1.6v4.1h0.8V16.3z"/>
		<path class="st2" d="M52.3,16.2c-0.1,0.1-0.2,0.1-0.3,0.2c-0.1,0.1-0.3,0.1-0.4,0.1c-0.3,0-0.6-0.1-0.7-0.2s-0.2-0.3-0.3-0.6h0
			c0,0.1-0.1,0.1-0.1,0.2c0,0.1-0.1,0.2-0.2,0.3c-0.1,0.1-0.2,0.2-0.4,0.2c-0.2,0.1-0.4,0.1-0.6,0.1c-0.3,0-0.5,0-0.7-0.1
			c-0.2-0.1-0.3-0.1-0.4-0.2C48.1,16.1,48,16,48,15.8c0-0.1,0-0.2,0-0.3c0-0.2,0-0.4,0.1-0.6c0.1-0.1,0.2-0.3,0.4-0.3
			c0.1-0.1,0.3-0.2,0.5-0.2c0.2-0.1,0.4-0.1,0.6-0.2c0.2-0.1,0.4-0.1,0.5-0.2c0.1-0.1,0.3-0.1,0.3-0.2s0.1-0.2,0.2-0.3
			c0-0.1,0-0.3,0-0.5c0-0.2,0-0.3,0-0.4c0-0.1-0.1-0.2-0.1-0.3c-0.1-0.1-0.1-0.2-0.2-0.2c-0.1,0-0.2-0.1-0.4-0.1
			c-0.2,0-0.4,0-0.5,0.1c-0.1,0.1-0.2,0.2-0.2,0.4c0,0.1,0,0.2,0,0.3s0,0.2,0,0.2c0,0.1,0,0.2-0.1,0.2c-0.1,0.1-0.2,0.1-0.3,0.1
			c-0.2,0-0.4,0-0.4-0.1c-0.1-0.1-0.1-0.2-0.1-0.3c0-0.1,0-0.3,0.1-0.4c0.1-0.1,0.2-0.3,0.3-0.4s0.3-0.2,0.5-0.2
			c0.2-0.1,0.4-0.1,0.7-0.1c0.3,0,0.6,0,0.8,0.1c0.2,0.1,0.4,0.2,0.5,0.3c0.1,0.1,0.2,0.3,0.3,0.4c0.1,0.2,0.1,0.3,0.1,0.5v2.5
			c0,0.2,0,0.3,0.1,0.4c0.1,0.1,0.1,0.1,0.3,0.1c0.1,0,0.2,0,0.2,0c0.1,0,0.2-0.1,0.2-0.1L52.3,16.2z M50.5,13.9L50.5,13.9
			c0,0.1-0.1,0.2-0.3,0.3l-0.8,0.3c-0.2,0.1-0.4,0.2-0.5,0.4s-0.2,0.4-0.2,0.6c0,0.1,0,0.2,0,0.3s0.1,0.2,0.1,0.3
			c0.1,0.1,0.1,0.2,0.2,0.2c0.1,0.1,0.2,0.1,0.4,0.1c0.2,0,0.4,0,0.5-0.1c0.1-0.1,0.2-0.2,0.3-0.3c0.1-0.1,0.1-0.3,0.1-0.5
			c0-0.2,0-0.3,0-0.4V13.9z"/>
		<path class="st2" d="M52.6,16.2h0.8V9.3h-0.8V9.1h1.6v7.1H55v0.1h-2.4V16.2z"/>
		<path class="st2" d="M62.8,16.2c-0.1,0.1-0.2,0.1-0.3,0.2c-0.1,0.1-0.3,0.1-0.4,0.1c-0.3,0-0.6-0.1-0.7-0.2s-0.2-0.3-0.3-0.6h0
			c0,0.1-0.1,0.1-0.1,0.2c0,0.1-0.1,0.2-0.2,0.3c-0.1,0.1-0.2,0.2-0.4,0.2c-0.2,0.1-0.4,0.1-0.6,0.1c-0.3,0-0.5,0-0.7-0.1
			c-0.2-0.1-0.3-0.1-0.4-0.2s-0.2-0.2-0.2-0.3s0-0.2,0-0.3c0-0.2,0-0.4,0.1-0.6c0.1-0.1,0.2-0.3,0.4-0.3c0.2-0.1,0.3-0.2,0.5-0.2
			c0.2-0.1,0.4-0.1,0.6-0.2c0.2-0.1,0.4-0.1,0.5-0.2c0.1-0.1,0.3-0.1,0.3-0.2s0.1-0.2,0.2-0.3c0-0.1,0-0.3,0-0.5c0-0.2,0-0.3,0-0.4
			c0-0.1-0.1-0.2-0.1-0.3c-0.1-0.1-0.1-0.2-0.2-0.2c-0.1,0-0.2-0.1-0.4-0.1c-0.2,0-0.4,0-0.5,0.1c-0.1,0.1-0.2,0.2-0.2,0.4
			c0,0.1,0,0.2,0,0.3c0,0.1,0,0.2,0,0.2c0,0.1,0,0.2-0.1,0.2c-0.1,0.1-0.2,0.1-0.3,0.1c-0.2,0-0.4,0-0.4-0.1
			c-0.1-0.1-0.1-0.2-0.1-0.3c0-0.1,0-0.3,0.1-0.4s0.2-0.3,0.3-0.4c0.1-0.1,0.3-0.2,0.5-0.2c0.2-0.1,0.4-0.1,0.7-0.1
			c0.3,0,0.6,0,0.8,0.1c0.2,0.1,0.4,0.2,0.5,0.3s0.2,0.3,0.3,0.4c0.1,0.2,0.1,0.3,0.1,0.5v2.5c0,0.2,0,0.3,0.1,0.4
			c0.1,0.1,0.1,0.1,0.3,0.1c0.1,0,0.1,0,0.2,0c0.1,0,0.2-0.1,0.2-0.1L62.8,16.2z M61.1,13.9L61.1,13.9c0,0.1-0.1,0.2-0.3,0.3
			L60,14.5c-0.2,0.1-0.4,0.2-0.5,0.4s-0.2,0.4-0.2,0.6c0,0.1,0,0.2,0,0.3s0.1,0.2,0.1,0.3c0.1,0.1,0.1,0.2,0.2,0.2
			c0.1,0.1,0.2,0.1,0.4,0.1c0.2,0,0.4,0,0.5-0.1c0.1-0.1,0.2-0.2,0.3-0.3c0.1-0.1,0.1-0.3,0.1-0.5c0-0.2,0-0.3,0-0.4V13.9z"/>
		<path class="st2" d="M63.4,14.9h0.1c0,0.2,0.1,0.3,0.2,0.5c0.1,0.2,0.2,0.3,0.3,0.5s0.3,0.2,0.5,0.3c0.2,0.1,0.4,0.1,0.7,0.1
			c0.2,0,0.4-0.1,0.6-0.2c0.2-0.1,0.2-0.3,0.2-0.6c0-0.3-0.1-0.4-0.2-0.5c-0.1-0.1-0.3-0.2-0.5-0.2l-0.8-0.3c-0.1,0-0.2-0.1-0.3-0.1
			c-0.1-0.1-0.2-0.1-0.3-0.2c-0.1-0.1-0.2-0.2-0.2-0.3s-0.1-0.3-0.1-0.5c0-0.2,0-0.4,0.1-0.5c0.1-0.2,0.2-0.3,0.3-0.4
			c0.1-0.1,0.3-0.2,0.5-0.3c0.2-0.1,0.4-0.1,0.6-0.1c0.1,0,0.3,0,0.4,0s0.2,0,0.2,0.1s0.1,0,0.2,0.1c0.1,0,0.1,0,0.2,0
			s0.1,0,0.2-0.1h0.1v1.1h-0.1c0-0.1-0.1-0.3-0.2-0.4c-0.1-0.1-0.1-0.3-0.2-0.4s-0.2-0.2-0.3-0.2c-0.1-0.1-0.3-0.1-0.4-0.1
			c-0.3,0-0.6,0.1-0.7,0.2C64,12.4,64,12.6,64,12.9c0,0.2,0.1,0.4,0.2,0.5c0.2,0.1,0.4,0.2,0.7,0.3l0.7,0.2c0.3,0.1,0.6,0.3,0.8,0.4
			c0.2,0.2,0.3,0.4,0.3,0.7c0,0.2,0,0.4-0.1,0.5s-0.2,0.3-0.3,0.5s-0.3,0.2-0.5,0.3c-0.2,0.1-0.4,0.1-0.7,0.1c-0.1,0-0.3,0-0.4,0
			c-0.1,0-0.2-0.1-0.3-0.1c-0.1,0-0.2-0.1-0.3-0.1c-0.1,0-0.2,0-0.2,0c-0.1,0-0.1,0-0.2,0c0,0-0.1,0.1-0.1,0.1h-0.1V14.9z"/>
		<path class="st2" d="M67.7,14.9h0.1c0,0.2,0.1,0.3,0.2,0.5c0.1,0.2,0.2,0.3,0.3,0.5c0.1,0.1,0.3,0.2,0.5,0.3
			c0.2,0.1,0.4,0.1,0.6,0.1c0.2,0,0.4-0.1,0.6-0.2c0.2-0.1,0.2-0.3,0.2-0.6c0-0.3-0.1-0.4-0.2-0.5c-0.1-0.1-0.3-0.2-0.5-0.2
			l-0.8-0.3c-0.1,0-0.2-0.1-0.3-0.1c-0.1-0.1-0.2-0.1-0.3-0.2c-0.1-0.1-0.2-0.2-0.2-0.3c-0.1-0.1-0.1-0.3-0.1-0.5
			c0-0.2,0-0.4,0.1-0.5c0.1-0.2,0.2-0.3,0.3-0.4s0.3-0.2,0.5-0.3c0.2-0.1,0.4-0.1,0.6-0.1c0.1,0,0.3,0,0.4,0s0.2,0,0.2,0.1
			c0.1,0,0.1,0,0.2,0.1c0.1,0,0.1,0,0.2,0c0.1,0,0.1,0,0.2-0.1h0.1v1.1h-0.1c0-0.1-0.1-0.3-0.2-0.4c-0.1-0.1-0.1-0.3-0.2-0.4
			c-0.1-0.1-0.2-0.2-0.3-0.2s-0.3-0.1-0.4-0.1c-0.3,0-0.6,0.1-0.7,0.2c-0.2,0.1-0.3,0.3-0.3,0.6c0,0.2,0.1,0.4,0.2,0.5
			c0.1,0.1,0.4,0.2,0.7,0.3l0.7,0.2c0.3,0.1,0.6,0.3,0.8,0.4c0.2,0.2,0.3,0.4,0.3,0.7c0,0.2,0,0.4-0.1,0.5c-0.1,0.2-0.2,0.3-0.3,0.5
			s-0.3,0.2-0.5,0.3s-0.4,0.1-0.7,0.1c-0.1,0-0.3,0-0.4,0c-0.1,0-0.2-0.1-0.3-0.1s-0.2-0.1-0.3-0.1c-0.1,0-0.2,0-0.2,0
			c-0.1,0-0.1,0-0.2,0c0,0-0.1,0.1-0.1,0.1h-0.1V14.9z"/>
		<path class="st2" d="M71.7,16.2h0.8v-4h-0.8v-0.1h1.6v4.1h0.8v0.1h-2.4V16.2z M72.3,9.7c0-0.1,0.1-0.3,0.2-0.4
			c0.1-0.1,0.2-0.2,0.4-0.2s0.3,0.1,0.4,0.2c0.1,0.1,0.2,0.2,0.2,0.4c0,0.1-0.1,0.3-0.2,0.4c-0.1,0.1-0.2,0.2-0.4,0.2
			s-0.3-0.1-0.4-0.2C72.4,10,72.3,9.9,72.3,9.7z"/>
		<path class="st2" d="M74.9,14.9H75c0,0.2,0.1,0.3,0.2,0.5c0.1,0.2,0.2,0.3,0.3,0.5c0.1,0.1,0.3,0.2,0.5,0.3
			c0.2,0.1,0.4,0.1,0.7,0.1c0.2,0,0.4-0.1,0.6-0.2c0.2-0.1,0.2-0.3,0.2-0.6c0-0.3-0.1-0.4-0.2-0.5c-0.1-0.1-0.3-0.2-0.5-0.2L76,14.5
			c-0.1,0-0.2-0.1-0.3-0.1c-0.1-0.1-0.2-0.1-0.3-0.2c-0.1-0.1-0.2-0.2-0.2-0.3S75,13.5,75,13.2c0-0.2,0-0.4,0.1-0.5
			c0.1-0.2,0.2-0.3,0.3-0.4c0.1-0.1,0.3-0.2,0.5-0.3c0.2-0.1,0.4-0.1,0.6-0.1c0.1,0,0.3,0,0.4,0S77,12,77,12s0.1,0,0.2,0.1
			c0.1,0,0.1,0,0.2,0s0.1,0,0.2-0.1h0.1v1.1h-0.1c0-0.1-0.1-0.3-0.2-0.4c-0.1-0.1-0.1-0.3-0.2-0.4s-0.2-0.2-0.3-0.2
			c-0.1-0.1-0.3-0.1-0.4-0.1c-0.3,0-0.6,0.1-0.7,0.2s-0.3,0.3-0.3,0.6c0,0.2,0.1,0.4,0.2,0.5c0.2,0.1,0.4,0.2,0.7,0.3l0.7,0.2
			c0.3,0.1,0.6,0.3,0.8,0.4s0.3,0.4,0.3,0.7c0,0.2,0,0.4-0.1,0.5s-0.2,0.3-0.3,0.5c-0.1,0.1-0.3,0.2-0.5,0.3
			c-0.2,0.1-0.4,0.1-0.7,0.1c-0.1,0-0.3,0-0.4,0c-0.1,0-0.2-0.1-0.3-0.1c-0.1,0-0.2-0.1-0.3-0.1c-0.1,0-0.2,0-0.2,0s-0.1,0-0.2,0
			c0,0-0.1,0.1-0.1,0.1h-0.1V14.9z"/>
		<path class="st2" d="M78.8,12.1h0.8v-1.3c0.1,0,0.1,0,0.1,0.1c0,0,0.1,0,0.2,0c0.1,0,0.2,0,0.3,0s0.1-0.1,0.2-0.1v1.4h1.4v0.1
			h-1.4v3.3c0,0.2,0,0.3,0.1,0.5c0,0.1,0.1,0.2,0.1,0.3c0.1,0.1,0.1,0.1,0.2,0.1c0.1,0,0.1,0,0.2,0c0.2,0,0.4-0.1,0.6-0.3
			s0.2-0.4,0.3-0.6l0.1,0c0,0.1,0,0.2-0.1,0.3c0,0.1-0.1,0.2-0.2,0.3c-0.1,0.1-0.2,0.2-0.3,0.2c-0.1,0.1-0.3,0.1-0.5,0.1
			c-0.5,0-0.8-0.1-1-0.3c-0.2-0.2-0.3-0.5-0.3-0.8v-3.2h-0.8V12.1z"/>
		<path class="st2" d="M86.7,16.2c-0.1,0.1-0.2,0.1-0.3,0.2c-0.1,0.1-0.3,0.1-0.4,0.1c-0.3,0-0.6-0.1-0.7-0.2S85,16,85,15.7h0
			c0,0.1-0.1,0.1-0.1,0.2s-0.1,0.2-0.2,0.3c-0.1,0.1-0.2,0.2-0.4,0.2c-0.2,0.1-0.4,0.1-0.6,0.1c-0.3,0-0.5,0-0.7-0.1
			c-0.2-0.1-0.3-0.1-0.4-0.2c-0.1-0.1-0.2-0.2-0.2-0.3s0-0.2,0-0.3c0-0.2,0-0.4,0.1-0.6c0.1-0.1,0.2-0.3,0.4-0.3
			c0.2-0.1,0.3-0.2,0.5-0.2c0.2-0.1,0.4-0.1,0.6-0.2c0.2-0.1,0.4-0.1,0.5-0.2c0.1-0.1,0.3-0.1,0.3-0.2s0.1-0.2,0.2-0.3
			c0-0.1,0-0.3,0-0.5c0-0.2,0-0.3,0-0.4c0-0.1-0.1-0.2-0.1-0.3c-0.1-0.1-0.1-0.2-0.2-0.2c-0.1,0-0.2-0.1-0.4-0.1
			c-0.2,0-0.4,0-0.5,0.1s-0.2,0.2-0.2,0.4c0,0.1,0,0.2,0,0.3c0,0.1,0,0.2,0,0.2c0,0.1,0,0.2-0.1,0.2c-0.1,0.1-0.2,0.1-0.3,0.1
			c-0.2,0-0.4,0-0.4-0.1s-0.1-0.2-0.1-0.3c0-0.1,0-0.3,0.1-0.4c0.1-0.1,0.2-0.3,0.3-0.4c0.1-0.1,0.3-0.2,0.5-0.2
			c0.2-0.1,0.4-0.1,0.7-0.1c0.3,0,0.6,0,0.8,0.1c0.2,0.1,0.4,0.2,0.5,0.3s0.2,0.3,0.3,0.4c0.1,0.2,0.1,0.3,0.1,0.5v2.5
			c0,0.2,0,0.3,0.1,0.4c0.1,0.1,0.1,0.1,0.3,0.1c0.1,0,0.1,0,0.2,0c0.1,0,0.2-0.1,0.2-0.1L86.7,16.2z M85,13.9L85,13.9
			c0,0.1-0.1,0.2-0.4,0.3l-0.8,0.3c-0.2,0.1-0.4,0.2-0.5,0.4c-0.1,0.2-0.2,0.4-0.2,0.6c0,0.1,0,0.2,0,0.3c0,0.1,0.1,0.2,0.1,0.3
			c0.1,0.1,0.1,0.2,0.2,0.2c0.1,0.1,0.2,0.1,0.4,0.1c0.2,0,0.4,0,0.5-0.1c0.1-0.1,0.2-0.2,0.3-0.3c0.1-0.1,0.1-0.3,0.1-0.5
			c0-0.2,0-0.3,0-0.4V13.9z"/>
		<path class="st2" d="M87,16.2h0.8v-4H87v-0.1h1.6v1.1h0c0-0.1,0.1-0.2,0.2-0.3c0.1-0.1,0.2-0.3,0.3-0.4c0.1-0.1,0.3-0.2,0.5-0.3
			c0.2-0.1,0.4-0.1,0.7-0.1c0.4,0,0.8,0.1,1.1,0.3s0.4,0.6,0.4,1v2.9h0.8v0.1h-2.4v-0.1H91V13c0-0.3-0.1-0.5-0.2-0.6
			c-0.1-0.2-0.3-0.2-0.6-0.2c-0.2,0-0.4,0-0.6,0.1c-0.2,0.1-0.4,0.2-0.5,0.4s-0.3,0.4-0.3,0.6c-0.1,0.2-0.1,0.5-0.1,0.7v2.3h0.8v0.1
			H87V16.2z"/>
		<path class="st2" d="M93,12.1h0.8v-1.3c0.1,0,0.1,0,0.1,0.1c0,0,0.1,0,0.2,0c0.1,0,0.2,0,0.3,0s0.1-0.1,0.2-0.1v1.4h1.4v0.1h-1.4
			v3.3c0,0.2,0,0.3,0.1,0.5c0,0.1,0.1,0.2,0.1,0.3c0.1,0.1,0.1,0.1,0.2,0.1c0.1,0,0.1,0,0.2,0c0.2,0,0.4-0.1,0.6-0.3
			s0.2-0.4,0.3-0.6l0.1,0c0,0.1,0,0.2-0.1,0.3c0,0.1-0.1,0.2-0.2,0.3c-0.1,0.1-0.2,0.2-0.3,0.2c-0.1,0.1-0.3,0.1-0.5,0.1
			c-0.5,0-0.8-0.1-1-0.3c-0.2-0.2-0.3-0.5-0.3-0.8v-3.2H93V12.1z"/>
	</g>
</g>
</svg>
