<svg id="Layer_1" data-name="Layer 1" xmlns="http://www.w3.org/2000/svg" viewBox="0 0 150 150"><defs><style>.cls-1{fill:#f0c086;}.cls-2,.cls-3,.cls-4{fill:none;stroke-miterlimit:10;}.cls-2,.cls-4{stroke:#dbb07c;}.cls-2{stroke-width:8.85px;}.cls-3{stroke:#282312;stroke-width:6px;}.cls-3,.cls-4{stroke-linecap:round;}.cls-4{stroke-width:2.21px;}</style></defs><title>clock</title><g id="Layer_2" data-name="Layer 2"><path class="cls-1" d="M34,88.8c0-36,13-56,49-56,2.2,0,13,6.3,13,6.3a47.08,47.08,0,0,0-5.3-.3,52,52,0,0,0-52,52,45.78,45.78,0,0,0,.3,5.3S34,91,34,88.8Z"/><circle class="cls-2" cx="78.7" cy="78.7" r="44.6"/><line class="cls-3" x1="78.7" y1="78.7" x2="57.3" y2="57.3"/><line class="cls-3" x1="78.7" y1="78.7" x2="90.8" y2="66.5"/><path class="cls-4" d="M50.6,30.6a56.17,56.17,0,0,1,8.2-3.9"/><path class="cls-4" d="M26.7,58.6A55.83,55.83,0,0,1,45.3,34.1"/></g></svg>