<svg id="Layer_1" data-name="Layer 1" xmlns="http://www.w3.org/2000/svg" viewBox="0 0 150 150"><defs><style>.cls-1{fill:#f0c086;}.cls-2{fill:#dbb07c;}.cls-3{fill:none;stroke:#444139;stroke-linecap:round;stroke-linejoin:round;stroke-width:6px;}.cls-4{fill:#444139;}</style></defs><title>up</title><g id="Layer_1-2" data-name="Layer 1"><path class="cls-1" d="M33.8,86.1H51.1a2,2,0,0,1,2,2v30.6a2,2,0,0,1-2,2H33.8a2,2,0,0,1-2-2V88.1A2,2,0,0,1,33.8,86.1Z"/><path class="cls-2" d="M31.8,107.4H53.1v11.3a2,2,0,0,1-2,2H33.8a2,2,0,0,1-2-2Z"/><path class="cls-1" d="M92.4,62.1h20a2,2,0,0,1,2,2v54.6a2,2,0,0,1-2,2h-20a2,2,0,0,1-2-2V64.1A2,2,0,0,1,92.4,62.1Z"/><path class="cls-1" d="M63.1,51.5H80.4a2,2,0,0,1,2,2v65.2a2,2,0,0,1-2,2H63.1a2,2,0,0,1-2-2V53.5A2,2,0,0,1,63.1,51.5Z"/><path class="cls-2" d="M61.1,88.8H82.4v29.9a2,2,0,0,1-2,2H63.1a2,2,0,0,1-2-2Z"/><path class="cls-2" d="M90.4,99.4h24v19.3a2,2,0,0,1-2,2h-20a2,2,0,0,1-2-2Z"/><path class="cls-3" d="M30.8,68.3l36-40.5,34.8,23.6,18.5-23.6"/><circle class="cls-4" cx="120.2" cy="27.8" r="4.8"/><circle class="cls-4" cx="30.8" cy="68.3" r="4.8"/></g></svg>