<svg id="Layer_1" data-name="Layer 1" xmlns="http://www.w3.org/2000/svg" viewBox="0 0 150 150"><defs><style>.cls-1{fill:#80b2ff;}.cls-2{fill:#0d6efd;}.cls-3{fill:none;stroke:#0a58ca;stroke-linecap:round;stroke-linejoin:round;stroke-width:5px;}.cls-4{fill:#0a58ca;}</style></defs><title>graph-up</title><rect class="cls-1" x="31.79" y="86.09" width="21.3" height="34.61" rx="2" ry="2"/><path class="cls-2" d="M31.79,107.39h21.3V118.7a2,2,0,0,1-2,2H33.79a2,2,0,0,1-2-2Z"/><rect class="cls-1" x="90.36" y="62.13" width="23.96" height="58.57" rx="2" ry="2"/><rect class="cls-1" x="61.08" y="51.48" width="21.3" height="69.22" rx="2" ry="2"/><path class="cls-2" d="M61.08,88.75H82.37v30a2,2,0,0,1-2,2H63.08a2,2,0,0,1-2-2Z"/><path class="cls-2" d="M90.36,99.4h24v19.3a2,2,0,0,1-2,2h-20a2,2,0,0,1-2-2Z"/><path class="cls-3" d="M30.82,68.27l36-40.46,34.83,23.6,18.54-23.6"/><circle class="cls-4" cx="120.15" cy="27.82" r="4.82"/><circle class="cls-4" cx="30.82" cy="68.27" r="4.82"/></svg>