<svg xmlns="http://www.w3.org/2000/svg" viewBox="0 0 10 6" fill="#ffffff"><g class="cls-1"><path d="M1.45,6c-.17,0-.25-.17-.25-.49V5.3a6.82,6.82,0,0,1,.21-1.08A18.85,18.85,0,0,1,2.3,1.74v0c0,.06-.15.18-.3.34s-.3.35-.49.54a5.94,5.94,0,0,1-.56.49.85.85,0,0,1-.47.21.16.16,0,0,1-.1,0c-.12,0-.18-.2-.18-.44A3.63,3.63,0,0,1,.35,2c.11-.37.22-.7.34-1S.9.42,1,.3,1,.21,1.07.21a.11.11,0,0,1,.07,0,.09.09,0,0,1,0,.06.09.09,0,0,1,0,.07A3.79,3.79,0,0,0,.84,1c-.13.32-.26.66-.37,1a3.28,3.28,0,0,0-.16.9c0,.15,0,.25.09.29a.08.08,0,0,0,.07,0c.21,0,.65-.36,1.33-1.09.35-.38.57-.62.65-.73l.06-.14L2.74.79C3,.29,3.18,0,3.33,0h0a.06.06,0,0,1,0,.06A.71.71,0,0,1,3.3.37a4.16,4.16,0,0,1-.61.89l-.13.3C2.36,2,2.16,2.44,2,3a13,13,0,0,0-.53,1.72l0,.2a3.21,3.21,0,0,0-.08.71c0,.19,0,.29.11.3a.28.28,0,0,0,.18-.06c.06,0,.09-.07.09-.11s0,0,.05,0a.11.11,0,0,1,.07,0,.09.09,0,0,1,0,.07.12.12,0,0,1-.06.09A.65.65,0,0,1,1.45,6ZM2.91.83,3,.76A2.76,2.76,0,0,0,3.28.2h0A2.41,2.41,0,0,0,2.91.83Z"/></g><g class="cls-1"><path d="M3.07,3.27h0c-.11,0-.17-.09-.17-.27A1.63,1.63,0,0,1,3,2.47a3.33,3.33,0,0,1,.13-.39A.14.14,0,0,1,3.25,2c.08,0,.11,0,.11.09s0,.11-.08.21a2.39,2.39,0,0,0-.23.77.2.2,0,0,0,0,.09.06.06,0,0,0,.05,0c.11,0,.31-.25.6-.76.12-.2.21-.29.27-.29s.1.07.1.22v.08a1.48,1.48,0,0,0,0,.31.19.19,0,0,0,.21.14,2.18,2.18,0,0,0,1-.6h0v.05A2.4,2.4,0,0,1,4.3,3a.25.25,0,0,1-.25-.16A1.16,1.16,0,0,1,4,2.48c0-.11,0-.17-.07-.17a.84.84,0,0,0-.21.29,3.79,3.79,0,0,1-.29.45A.46.46,0,0,1,3.07,3.27Z"/><path d="M5.19,3.28a.14.14,0,0,1-.1,0,.11.11,0,0,1,0-.09s.13-.42.37-1.2q0-.06.12-.06s.08,0,.08.06-.09.29-.26.85a3.64,3.64,0,0,1,.42-.55c.16-.18.29-.27.41-.27h0a.24.24,0,0,1,.16.21,1.48,1.48,0,0,1,0,.39A2.3,2.3,0,0,0,6.48,3a.18.18,0,0,0,.19.17c.19,0,.55-.29,1.07-.87h0s0,0,0,0v0c-.53.61-.91.91-1.14.91S6.43,3.15,6.39,3a2.22,2.22,0,0,1-.06-.46,1.56,1.56,0,0,0,0-.27c0-.07,0-.11-.08-.12h0q-.23,0-.66.69a1.59,1.59,0,0,0-.19.35A.16.16,0,0,1,5.19,3.28Z"/><path d="M8.44,3.26c-.17,0-.25-.11-.25-.34a1.89,1.89,0,0,1,.09-.53A2.87,2.87,0,0,1,8,2.72c-.19.21-.34.32-.46.32s-.1,0-.1-.1a1.08,1.08,0,0,1,.14-.45c.15-.29.3-.44.44-.44a.23.23,0,0,1,.23.14.77.77,0,0,0,.09-.13A.18.18,0,0,1,8.43,2s0,0,.06,0,.07,0,.07,0v0a2.5,2.5,0,0,0-.26.88c0,.17.07.25.21.25a3.14,3.14,0,0,0,1.44-.91h0s0,0,0,0v0A3.39,3.39,0,0,1,8.44,3.26Zm-.8-.38s.07,0,.15-.1L8,2.52a2.42,2.42,0,0,0,.22-.28l-.07,0,0,0h0S8,2.26,8,2.32a1,1,0,0,0-.2.24.89.89,0,0,0-.15.31Z"/></g></svg>