<svg id="Layer_2" data-name="Layer 2" xmlns="http://www.w3.org/2000/svg" viewBox="0 0 150 150"><defs><style>.cls-1{font-size:110px;fill:#fff;font-family:NotoSerifDisplay-Regular, Noto Serif Display;}.cls-2{letter-spacing:-0.08em;}.cls-3{fill:none;}.cls-4{fill:#030303;}</style></defs><title>Artboard 1</title><text class="cls-1" transform="translate(3.5 109.07)"><tspan class="cls-2">V</tspan><tspan x="65.45" y="0">A</tspan></text><path class="cls-3" d="M121.65,94.43a7.85,7.85,0,0,0-2.35.52,26.3,26.3,0,0,0-8.62,5.61,5.16,5.16,0,0,0-1.26,1.86c-.26.68,0,1,1,1a8.51,8.51,0,0,0,2.46-.89,62.18,62.18,0,0,0,9.48-6.18c.37-.28,1.16-.4.91-1.11S122.28,94.39,121.65,94.43Z"/><path class="cls-4" d="M147.91,95.74c-.37-.6-.84-.19-1.25,0-.18.11-.35.25-.53.37a51.89,51.89,0,0,1-14.29,6.76,11.37,11.37,0,0,1-4.62.68c-1.66-.21-2.25-1.08-1.89-2.71a13,13,0,0,1,2-4.38c.62-1,1.24-1.9,1.85-2.86.21-.33.37-.7.07-1a.87.87,0,0,0-1.18-.12,15.15,15.15,0,0,0-1.92,1.21c-.87.66-1.63,1.41-2.6.08-.35-.48-1.06-.45-1.66-.47a10.6,10.6,0,0,0-5.24,1.52c-3.46,1.74-6.59,4.1-10.22,5.57a28.69,28.69,0,0,1-6.65,2c-2,.29-2.49-.21-2-2.18.25-1.11.57-2.2.76-3.32.23-1.29,1.09-2.84-.09-3.83-1.36-1.14-3-.25-4.44.35A46.38,46.38,0,0,0,86,98c-1.84,1.25-3.67,2.52-5.51,3.78l-.34-.31c.66-.87,1.29-1.76,2-2.62a58.41,58.41,0,0,1,9.06-9.27c.42-.33,1-.73.48-1.3s-.86.09-1.23.35-.59.47-.89.71c-2.14,1.75-3.75,4.14-6,5.72a50.21,50.21,0,0,1-18.43,8.43c-1.13.25-2.38.3-3.17-.67s-.35-2.28.19-3.36a29.37,29.37,0,0,1,3.58-4.8c.53-.68,1.7-1.49,1-2.27s-1.66.26-2.35.79c-3.28,2.48-6.37,5.21-9.77,7.54a28.73,28.73,0,0,1-2.78,1.66c-.39.21-.92.62-1.32.16s-.07-.94.17-1.36A22.41,22.41,0,0,1,52.11,99a31.16,31.16,0,0,1,3.77-4c.35-.32.88-.69.38-1.2s-.9,0-1.22.34a11.09,11.09,0,0,1-2.84,2.12c-2.83,1.47-5.65,2.95-8.49,4.39-3.2,1.61-6.43,3.17-9.94,4.9,1.75-2.48,3.3-4.63,4.81-6.81A218.68,218.68,0,0,0,52.09,76.06c.24-.45.78-1,.2-1.43s-.95.27-1.33.72a22.73,22.73,0,0,1-2.29,2.51A94.07,94.07,0,0,1,28.3,91.61c-4,2.1-8.16,4-12.71,4.68-1.34.19-3,.83-3.9-.63s-.12-2.94.59-4.29a31.73,31.73,0,0,1,5.4-7.06A97.75,97.75,0,0,1,30.88,73c.45-.33,1.22-.67.73-1.37s-1.06,0-1.49.29c-1.27.91-2.54,1.84-3.76,2.82-5.3,4.23-10.42,8.66-14.2,14.39a9.92,9.92,0,0,0-2,5.22,2.84,2.84,0,0,0,3,3.24,14.65,14.65,0,0,0,4.65-.56c8.12-2.24,15.28-6.45,22.26-11,2.7-1.77,5.24-3.76,7.9-5.85a1.39,1.39,0,0,1-.29,1.34,202.3,202.3,0,0,1-15.36,23.83,9,9,0,0,1-3.2,2.63c-7.86,4-15.83,7.93-23,13.18a13.6,13.6,0,0,0-3.47,3.38,2.54,2.54,0,0,0-.3,2.88A2.59,2.59,0,0,0,5,128.65,15.26,15.26,0,0,0,11,127c6.14-3,11-7.61,15.44-12.7,3.45-4,6.91-7.73,12-9.78,4.16-1.67,8.08-3.93,12.42-6.09a11.68,11.68,0,0,0-1.64,3.19c-.42,1.57.55,2.6,2.13,2.23a7.72,7.72,0,0,0,2.09-.85,47.11,47.11,0,0,0,6.46-4.61c.68-.54,1.37-1.06,2-1.59a3.5,3.5,0,0,1-.5,1.46c-.86,1.72-1.74,3.57-.4,5.32s3.41,1.34,5.27.94a47.27,47.27,0,0,0,10.13-3.81c1.26-.6,2.51-1.24,4.11-2-1.16,1.79-2.08,3.19-3,4.6A.91.91,0,0,0,79,104.52c.48-.35,1-.66,1.47-1,3.39-2.43,6.74-4.9,10.33-7a19.71,19.71,0,0,1,5.72-2.59c1.13-.25,1.54,0,1.22,1.23-.48,1.83-.92,3.67-1.29,5.53s.59,3.07,2.53,3a18.75,18.75,0,0,0,2.88-.45,45.86,45.86,0,0,0,7.17-2.56c-.23.44-.37.66-.47.89-.37.86-.74,1.75,0,2.57a2.24,2.24,0,0,0,2.56.45,17.23,17.23,0,0,0,2.41-1A96.55,96.55,0,0,0,125.12,96a3.69,3.69,0,0,1,1.72-.92,17.47,17.47,0,0,0-2.5,4.87c-1,3.43.73,5.54,4.27,4.95,6.91-1.13,13-4.35,18.77-8.08C147.73,96.54,148.2,96.23,147.91,95.74ZM10.78,125.79a14.53,14.53,0,0,1-5.69,1.68c-.62,0-1.24,0-1.6-.54s-.1-1.23.27-1.8a9.32,9.32,0,0,1,2.15-2.19c7-5.38,14.93-9.14,22.71-13.2C23.46,116,18.07,122,10.78,125.79ZM122.37,96.34a62.18,62.18,0,0,1-9.48,6.18,8.51,8.51,0,0,1-2.46.89c-1.05.06-1.27-.31-1-1a5.16,5.16,0,0,1,1.26-1.86A26.3,26.3,0,0,1,119.3,95a7.85,7.85,0,0,1,2.35-.52c.63,0,1.39.07,1.63.8S122.74,96.06,122.37,96.34Z"/></svg>