<?xml version="1.0" standalone="no"?>
<!DOCTYPE svg PUBLIC "-//W3C//DTD SVG 20010904//EN"
 "http://www.w3.org/TR/2001/REC-SVG-20010904/DTD/svg10.dtd">
<svg version="1.0" xmlns="http://www.w3.org/2000/svg"
 width="500.000000pt" height="500.000000pt" viewBox="0 0 500.000000 500.000000"
 preserveAspectRatio="xMidYMid meet">

<g transform="translate(0.000000,500.000000) scale(0.100000,-0.100000)"
fill="#000000" stroke="none">
<path d="M4477 2919 c-59 -169 -212 -574 -233 -617 -16 -32 -39 -61 -58 -73
l-31 -19 110 1 c72 0 103 3 89 9 -51 20 -67 88 -42 171 l11 39 137 0 138 0 22
-52 c13 -29 25 -74 28 -100 4 -43 2 -49 -19 -57 -17 -7 10 -10 96 -10 77 0
112 3 99 9 -27 10 -64 61 -87 115 -9 22 -64 165 -122 318 -57 153 -108 285
-113 294 -7 12 -13 6 -25 -28z m49 -294 l62 -165 -124 0 c-68 0 -124 3 -124 8
0 15 115 330 119 326 3 -3 33 -79 67 -169z"/>
<path d="M1230 2673 c-130 -353 -159 -417 -202 -443 l-33 -20 110 1 c61 0 103
3 95 6 -52 19 -68 71 -50 157 l11 56 140 0 140 0 19 -45 c45 -104 46 -149 6
-165 -13 -6 23 -9 99 -9 76 0 112 3 99 9 -48 19 -53 30 -240 523 -43 114 -82
207 -85 207 -4 0 -53 -125 -109 -277z m137 -45 l61 -163 -120 -3 c-67 -1 -122
-1 -125 1 -5 6 110 327 117 327 4 0 34 -73 67 -162z"/>
<path d="M204 2908 c36 -37 52 -74 192 -445 55 -145 102 -263 105 -263 3 0 45
107 94 238 162 439 178 472 229 492 13 6 -24 9 -104 8 -93 0 -117 -2 -93 -9
18 -5 39 -19 48 -31 17 -26 20 -95 4 -153 -15 -60 -133 -385 -139 -385 -8 0
-201 522 -200 543 0 10 10 22 23 27 15 6 -11 9 -84 9 l-107 1 32 -32z"/>
<path d="M1883 2898 c22 -24 78 -113 124 -198 l84 -155 -3 -148 c-3 -142 -4
-150 -27 -168 -23 -19 -23 -19 79 -19 99 0 102 1 81 18 -30 23 -40 77 -41 202
l0 105 81 150 c90 166 128 223 162 242 19 10 9 12 -68 12 -61 0 -83 -3 -68 -9
29 -12 37 -43 23 -88 -14 -42 -130 -262 -139 -262 -9 0 -132 226 -150 275 -14
41 -14 45 3 64 l19 21 -100 0 -100 0 40 -42z"/>
<path d="M2641 2921 c24 -19 24 -20 29 -298 3 -153 10 -287 15 -298 36 -84
110 -125 225 -125 95 0 141 13 187 53 60 53 63 68 63 344 0 253 7 314 38 332
12 8 -11 10 -82 11 l-98 0 23 -19 24 -19 3 -279 c3 -273 2 -279 -20 -322 -56
-108 -199 -108 -262 -1 -19 32 -21 54 -24 265 -4 263 1 328 29 356 19 19 18
19 -77 19 l-96 0 23 -19z"/>
<path d="M3441 2921 l24 -19 3 -294 c2 -161 0 -308 -3 -326 -3 -18 -15 -42
-26 -53 -19 -19 -18 -19 47 -19 66 0 66 0 44 18 -33 26 -39 83 -39 367 -1 210
1 247 13 235 7 -8 100 -151 206 -317 106 -167 199 -303 207 -303 11 0 13 63
13 339 0 327 1 339 21 365 l20 26 -61 0 -62 0 23 -19 c24 -19 24 -20 27 -273
l3 -253 -173 272 -173 272 -69 1 -68 0 23 -19z"/>
</g>
</svg>
