<svg id="Layer_4" data-name="Layer 4" xmlns="http://www.w3.org/2000/svg" viewBox="0 0 150 150"><defs><style>.cls-1{fill:#d9e8ff;}.cls-2,.cls-3,.cls-4{fill:none;stroke-miterlimit:10;}.cls-2,.cls-3{stroke:#80b2ff;}.cls-2{stroke-width:4px;}.cls-3{stroke-width:2.84px;}.cls-4{stroke:#0d6efd;stroke-width:7px;}.cls-5{fill:#0a58ca;}</style></defs><title>suit-heart</title><rect class="cls-1" x="27.72" y="27.72" width="94.56" height="94.56" rx="34.05" ry="34.05"/><rect class="cls-2" x="29.08" y="29.08" width="91.84" height="91.84" rx="40.26" ry="40.26"/><rect class="cls-3" x="28.49" y="28.49" width="93.01" height="93.01" rx="38.27" ry="38.27"/><rect class="cls-3" x="28.49" y="28.49" width="93.01" height="93.01" rx="38.27" ry="38.27"/><rect class="cls-4" x="26.05" y="26.05" width="97.91" height="97.91" rx="35.26" ry="35.26"/><path class="cls-5" d="M76.25,96.36a1.63,1.63,0,0,1-2.31.19,1.14,1.14,0,0,1-.19-.19,157.52,157.52,0,0,0-13.58-14C53.56,76.13,49.4,72.23,49.4,65.61A12.67,12.67,0,0,1,62.2,53.06c5.12,0,8.7,3.36,10.89,6.43A24.59,24.59,0,0,1,75,62.66a23.19,23.19,0,0,1,1.91-3.17c2.19-3.07,5.77-6.43,10.89-6.43a12.67,12.67,0,0,1,12.8,12.55c0,6.62-4.16,10.52-10.77,16.73a158.6,158.6,0,0,0-13.58,14Z"/></svg>