<svg id="Layer_1" data-name="Layer 1" xmlns="http://www.w3.org/2000/svg" viewBox="0 0 150 150"><defs><style>.cls-1,.cls-2,.cls-3{fill:none;stroke-miterlimit:10;}.cls-1{stroke:#f0c086;stroke-width:5px;}.cls-2{stroke:#80b2ff;stroke-width:2.84px;}.cls-3{stroke:#dbb07c;stroke-width:7px;}.cls-4{fill:#444139;}</style></defs><title>up</title><g id="Layer_4" data-name="Layer 4"><path class="cls-1" d="M80.7,120.9H69.3A40.31,40.31,0,0,1,29,80.6V69.3A40.31,40.31,0,0,1,69.3,29H80.6a40.31,40.31,0,0,1,40.3,40.3V80.6A40.22,40.22,0,0,1,80.7,120.9Z"/><path class="cls-2" d="M83.2,121.5H66.8A38.3,38.3,0,0,1,28.5,83.2V66.8A38.3,38.3,0,0,1,66.8,28.5H83.3a38.3,38.3,0,0,1,38.3,38.3V83.3A38.37,38.37,0,0,1,83.2,121.5Z"/><path class="cls-1" d="M83.2,121.5H66.8A38.3,38.3,0,0,1,28.5,83.2V66.8A38.3,38.3,0,0,1,66.8,28.5H83.3a38.3,38.3,0,0,1,38.3,38.3V83.3A38.37,38.37,0,0,1,83.2,121.5Z"/><path class="cls-3" d="M88.7,124H61.3A35.29,35.29,0,0,1,26,88.7V61.3A35.29,35.29,0,0,1,61.3,26H88.7A35.29,35.29,0,0,1,124,61.3V88.7A35.29,35.29,0,0,1,88.7,124Z"/><path class="cls-4" d="M76.3,96.4a1.61,1.61,0,0,1-2.3.2l-.2-.2a155.34,155.34,0,0,0-13.6-14c-6.6-6.2-10.8-10.1-10.8-16.7A12.64,12.64,0,0,1,62.2,53.2c5.1,0,8.7,3.4,10.9,6.4A24,24,0,0,1,75,62.8a33.71,33.71,0,0,1,1.9-3.2c2.2-3.1,5.8-6.4,10.9-6.4a12.64,12.64,0,0,1,12.8,12.5c0,6.6-4.2,10.5-10.8,16.7a143.6,143.6,0,0,0-13.5,14Z"/></g></svg>